<svg width="70" height="110" viewBox="0 0 70 110" fill="none" xmlns="http://www.w3.org/2000/svg">
<path d="M50.9056 109.073C49.5466 109.073 48.4226 107.984 48.3654 106.599C48.3083 105.176 49.4006 103.978 50.804 103.926C53.1283 103.836 55.5923 103.643 57.8785 102.902C59.4471 102.393 61.5999 101.369 62.9716 99.4301C64.21 97.6845 64.7498 95.211 64.4957 92.467C64.3687 91.1272 63.994 89.3107 62.9018 88.2801C61.873 87.3074 61.8158 85.6778 62.7747 84.6407C63.7337 83.5972 65.3404 83.5392 66.3628 84.5119C68.179 86.2253 69.2523 88.7439 69.5508 91.9839C69.9191 95.9711 69.0491 99.6814 67.0995 102.438C65.3721 104.88 62.7239 106.735 59.4344 107.804C56.5639 108.744 53.5601 108.976 51.0009 109.079C50.9691 109.079 50.931 109.079 50.8993 109.079L50.9056 109.073Z" fill="#363A44"/>
<g filter="url(#filter0_f_1272_13330)">
<path d="M64.3902 85.7693C65.9397 87.2379 66.5811 89.4538 66.778 91.5987C67.0574 94.6326 66.543 97.834 64.7903 100.308C63.2598 102.465 60.9038 103.915 58.408 104.726C55.9123 105.538 53.2768 105.77 50.6541 105.873" stroke="white" stroke-width="0.443213" stroke-linecap="round" stroke-linejoin="round"/>
</g>
<g filter="url(#filter1_f_1272_13330)">
<path d="M64.3902 85.7693C65.9397 87.2379 66.5811 89.4538 66.778 91.5987C67.0574 94.6326 66.543 97.834 64.7903 100.308C63.2598 102.465 60.9038 103.915 58.408 104.726C55.9123 105.538 53.2768 105.77 50.6541 105.873" stroke="white" stroke-opacity="0.6" stroke-width="0.443213" stroke-linecap="round" stroke-linejoin="round"/>
</g>
<path d="M64.6454 93.2188C64.6477 93.2488 64.6489 93.2722 64.6489 93.2885C64.6475 93.2653 64.6463 93.2421 64.6454 93.2188C64.6025 92.6652 64.1621 89.8757 63.2688 88.0892C62.3273 86.206 65.1947 85.2809 66.6905 84.9867C66.9571 85.2154 67.5522 86.1136 67.5522 86.3109C67.1865 87.5193 64.5382 90.5762 64.6454 93.2188Z" fill="url(#paint0_linear_1272_13330)"/>
<mask id="mask0_1272_13330" style="mask-type:alpha" maskUnits="userSpaceOnUse" x="16" y="0" width="24" height="41">
<path d="M25.2558 3.94318C26.296 2.85552 27.145 1.90533 27.7342 1.2268C28.0288 0.887515 28.2585 0.616086 28.4147 0.42928C28.4391 0.40013 28.4617 0.373039 28.4824 0.348073C28.5033 0.373126 28.5261 0.400323 28.5507 0.429598C28.7074 0.616374 28.9379 0.88777 29.2333 1.22702C29.824 1.90548 30.6745 2.8556 31.7146 3.94318C35.0608 7.44692 39.7503 13.0031 39.7503 20.3879C39.7503 26.3699 36.9117 31.2618 34.0571 34.6678C32.6309 36.3695 31.2044 37.6959 30.1346 38.5965C29.5999 39.0468 29.1547 39.3903 28.8438 39.6208C28.6883 39.7361 28.5665 39.8231 28.4838 39.8811C28.4833 39.8815 28.4827 39.8819 28.4821 39.8823C28.4815 39.8819 28.481 39.8815 28.4804 39.8811C28.3978 39.8232 28.276 39.7362 28.1207 39.6209C27.8099 39.3903 27.365 39.0468 26.8305 38.5966C25.7614 37.6959 24.3356 36.3696 22.9102 34.6678C20.0572 31.2618 17.2201 26.3699 17.2201 20.3879C17.2201 13.0031 21.9096 7.44692 25.2558 3.94318Z" fill="#4B4D53"/>
<path d="M25.2558 3.94318C26.296 2.85552 27.145 1.90533 27.7342 1.2268C28.0288 0.887515 28.2585 0.616086 28.4147 0.42928C28.4391 0.40013 28.4617 0.373039 28.4824 0.348073C28.5033 0.373126 28.5261 0.400323 28.5507 0.429598C28.7074 0.616374 28.9379 0.88777 29.2333 1.22702C29.824 1.90548 30.6745 2.8556 31.7146 3.94318C35.0608 7.44692 39.7503 13.0031 39.7503 20.3879C39.7503 26.3699 36.9117 31.2618 34.0571 34.6678C32.6309 36.3695 31.2044 37.6959 30.1346 38.5965C29.5999 39.0468 29.1547 39.3903 28.8438 39.6208C28.6883 39.7361 28.5665 39.8231 28.4838 39.8811C28.4833 39.8815 28.4827 39.8819 28.4821 39.8823C28.4815 39.8819 28.481 39.8815 28.4804 39.8811C28.3978 39.8232 28.276 39.7362 28.1207 39.6209C27.8099 39.3903 27.365 39.0468 26.8305 38.5966C25.7614 37.6959 24.3356 36.3696 22.9102 34.6678C20.0572 31.2618 17.2201 26.3699 17.2201 20.3879C17.2201 13.0031 21.9096 7.44692 25.2558 3.94318Z" fill="url(#paint1_angular_1272_13330)"/>
<path d="M25.2558 3.94318C26.296 2.85552 27.145 1.90533 27.7342 1.2268C28.0288 0.887515 28.2585 0.616086 28.4147 0.42928C28.4391 0.40013 28.4617 0.373039 28.4824 0.348073C28.5033 0.373126 28.5261 0.400323 28.5507 0.429598C28.7074 0.616374 28.9379 0.88777 29.2333 1.22702C29.824 1.90548 30.6745 2.8556 31.7146 3.94318C35.0608 7.44692 39.7503 13.0031 39.7503 20.3879C39.7503 26.3699 36.9117 31.2618 34.0571 34.6678C32.6309 36.3695 31.2044 37.6959 30.1346 38.5965C29.5999 39.0468 29.1547 39.3903 28.8438 39.6208C28.6883 39.7361 28.5665 39.8231 28.4838 39.8811C28.4833 39.8815 28.4827 39.8819 28.4821 39.8823C28.4815 39.8819 28.481 39.8815 28.4804 39.8811C28.3978 39.8232 28.276 39.7362 28.1207 39.6209C27.8099 39.3903 27.365 39.0468 26.8305 38.5966C25.7614 37.6959 24.3356 36.3696 22.9102 34.6678C20.0572 31.2618 17.2201 26.3699 17.2201 20.3879C17.2201 13.0031 21.9096 7.44692 25.2558 3.94318Z" stroke="#32353E" stroke-width="0.443213"/>
</mask>
<g mask="url(#mask0_1272_13330)">
<path d="M25.2558 3.94343C26.296 2.85576 27.145 1.90557 27.7342 1.22705C28.0288 0.887759 28.2585 0.61633 28.4147 0.429525C28.4391 0.400374 28.4617 0.373284 28.4824 0.348317C28.5033 0.373371 28.5261 0.400567 28.5507 0.429842C28.7074 0.616618 28.9379 0.888014 29.2333 1.22727C29.824 1.90573 30.6745 2.85584 31.7146 3.94343C35.0608 7.44716 39.7503 13.0034 39.7503 20.3881C39.7503 26.3701 36.9117 31.262 34.0571 34.668C32.6309 36.3698 31.2044 37.6961 30.1346 38.5968C29.5999 39.047 29.1547 39.3905 28.8438 39.6211C28.6883 39.7364 28.5665 39.8234 28.4838 39.8813C28.4833 39.8817 28.4827 39.8822 28.4821 39.8826C28.4815 39.8822 28.481 39.8818 28.4804 39.8814C28.3978 39.8234 28.276 39.7364 28.1207 39.6211C27.8099 39.3906 27.365 39.047 26.8305 38.5968C25.7614 37.6962 24.3356 36.3698 22.9102 34.6681C20.0572 31.2621 17.2201 26.3702 17.2201 20.3881C17.2201 13.0034 21.9096 7.44716 25.2558 3.94343Z" fill="#4B4D53"/>
<path d="M25.2558 3.94343C26.296 2.85576 27.145 1.90557 27.7342 1.22705C28.0288 0.887759 28.2585 0.61633 28.4147 0.429525C28.4391 0.400374 28.4617 0.373284 28.4824 0.348317C28.5033 0.373371 28.5261 0.400567 28.5507 0.429842C28.7074 0.616618 28.9379 0.888014 29.2333 1.22727C29.824 1.90573 30.6745 2.85584 31.7146 3.94343C35.0608 7.44716 39.7503 13.0034 39.7503 20.3881C39.7503 26.3701 36.9117 31.262 34.0571 34.668C32.6309 36.3698 31.2044 37.6961 30.1346 38.5968C29.5999 39.047 29.1547 39.3905 28.8438 39.6211C28.6883 39.7364 28.5665 39.8234 28.4838 39.8813C28.4833 39.8817 28.4827 39.8822 28.4821 39.8826C28.4815 39.8822 28.481 39.8818 28.4804 39.8814C28.3978 39.8234 28.276 39.7364 28.1207 39.6211C27.8099 39.3906 27.365 39.047 26.8305 38.5968C25.7614 37.6962 24.3356 36.3698 22.9102 34.6681C20.0572 31.2621 17.2201 26.3702 17.2201 20.3881C17.2201 13.0034 21.9096 7.44716 25.2558 3.94343Z" fill="url(#paint2_angular_1272_13330)"/>
<path d="M25.2558 3.94343C26.296 2.85576 27.145 1.90557 27.7342 1.22705C28.0288 0.887759 28.2585 0.61633 28.4147 0.429525C28.4391 0.400374 28.4617 0.373284 28.4824 0.348317C28.5033 0.373371 28.5261 0.400567 28.5507 0.429842C28.7074 0.616618 28.9379 0.888014 29.2333 1.22727C29.824 1.90573 30.6745 2.85584 31.7146 3.94343C35.0608 7.44716 39.7503 13.0034 39.7503 20.3881C39.7503 26.3701 36.9117 31.262 34.0571 34.668C32.6309 36.3698 31.2044 37.6961 30.1346 38.5968C29.5999 39.047 29.1547 39.3905 28.8438 39.6211C28.6883 39.7364 28.5665 39.8234 28.4838 39.8813C28.4833 39.8817 28.4827 39.8822 28.4821 39.8826C28.4815 39.8822 28.481 39.8818 28.4804 39.8814C28.3978 39.8234 28.276 39.7364 28.1207 39.6211C27.8099 39.3906 27.365 39.047 26.8305 38.5968C25.7614 37.6962 24.3356 36.3698 22.9102 34.6681C20.0572 31.2621 17.2201 26.3702 17.2201 20.3881C17.2201 13.0034 21.9096 7.44716 25.2558 3.94343Z" stroke="#32353E" stroke-width="0.443213"/>
<g filter="url(#filter2_f_1272_13330)">
<path d="M39.3036 17.0126C41.9576 30.1322 28.8207 39.4065 28.4858 39.6334C28.5997 39.4917 28.4858 35.6405 28.4858 35.6405C32.5434 31.7346 35.0472 29.7316 35.4445 21.7231L39.3036 17.0126Z" fill="url(#paint3_linear_1272_13330)"/>
</g>
<g filter="url(#filter3_f_1272_13330)">
<path d="M17.6681 17.0126C15.0141 30.1322 28.151 39.4065 28.4858 39.6334C28.372 39.4917 28.4858 35.6405 28.4858 35.6405C24.4283 31.7346 21.9245 29.7316 21.5271 21.7231L17.6681 17.0126Z" fill="url(#paint4_linear_1272_13330)"/>
</g>
<g filter="url(#filter4_f_1272_13330)">
<path d="M28.3145 39.8184L28.3145 23.7011C27.8675 32.643 22.5214 32.8847 19.8097 30.0697C20.2072 31.858 25.5822 37.2311 28.3145 39.8184Z" fill="black" fill-opacity="0.6"/>
</g>
<g filter="url(#filter5_f_1272_13330)">
<path d="M28.515 0.636962C35.8148 7.89792 39.2654 14.2089 39.541 19.663C39.4426 21.5629 39.541 24.9437 37.5607 28.6713C37.7636 24.0941 35.356 17.5212 28.515 12.7576L28.515 4.63631L28.515 0.636962Z" fill="url(#paint5_linear_1272_13330)" fill-opacity="0.6"/>
</g>
<g filter="url(#filter6_f_1272_13330)">
<path d="M28.484 0.636962C21.1842 7.89792 17.7337 14.2089 17.458 19.663C17.5564 21.5629 17.458 24.9437 19.4383 28.6713C19.2354 24.0941 21.6431 17.6315 28.484 12.8679L28.484 4.63631L28.484 0.636962Z" fill="url(#paint6_linear_1272_13330)" fill-opacity="0.6"/>
</g>
<g filter="url(#filter7_f_1272_13330)">
<line x1="28.0191" y1="40.152" x2="28.0191" y2="0.635883" stroke="#32353E" stroke-opacity="0.2" stroke-width="0.443213"/>
</g>
<g filter="url(#filter8_f_1272_13330)">
<path d="M28.7368 40.152L28.7368 0.635883" stroke="white" stroke-opacity="0.16" stroke-width="0.443213" stroke-linecap="round"/>
</g>
</g>
<mask id="mask1_1272_13330" style="mask-type:alpha" maskUnits="userSpaceOnUse" x="7" y="25" width="26" height="36">
<path d="M9.12256 30.8484C9.4796 29.3863 9.73977 28.1389 9.91074 27.2567C9.99623 26.8156 10.0594 26.4657 10.1013 26.2258C10.1078 26.1884 10.1138 26.1536 10.1193 26.1216C10.15 26.1329 10.1833 26.145 10.2192 26.1581C10.4484 26.2415 10.7836 26.3613 11.2091 26.5074C12.0598 26.7996 13.2714 27.1972 14.7159 27.6189C19.3657 28.9802 26.2051 31.4472 29.8975 37.8427C32.8885 43.0232 32.8761 48.6791 32.107 53.056C31.7228 55.2428 31.1505 57.1048 30.6744 58.4197C30.4364 59.0769 30.2226 59.597 30.0687 59.9522C29.9917 60.1297 29.9297 60.266 29.8871 60.3575C29.8868 60.3582 29.8865 60.3588 29.8862 60.3595C29.8855 60.3594 29.8848 60.3593 29.8841 60.3593C29.7836 60.3504 29.6346 60.3359 29.4425 60.3137C29.0581 60.2694 28.501 60.1944 27.813 60.0717C26.4368 59.8263 24.5388 59.3906 22.4535 58.6295C18.2798 57.1063 13.3768 54.2884 10.3858 49.1078C6.69343 42.7124 7.97656 35.5558 9.12256 30.8484Z" fill="#4B4D53"/>
<path d="M9.12256 30.8484C9.4796 29.3863 9.73977 28.1389 9.91074 27.2567C9.99623 26.8156 10.0594 26.4657 10.1013 26.2258C10.1078 26.1884 10.1138 26.1536 10.1193 26.1216C10.15 26.1329 10.1833 26.145 10.2192 26.1581C10.4484 26.2415 10.7836 26.3613 11.2091 26.5074C12.0598 26.7996 13.2714 27.1972 14.7159 27.6189C19.3657 28.9802 26.2051 31.4472 29.8975 37.8427C32.8885 43.0232 32.8761 48.6791 32.107 53.056C31.7228 55.2428 31.1505 57.1048 30.6744 58.4197C30.4364 59.0769 30.2226 59.597 30.0687 59.9522C29.9917 60.1297 29.9297 60.266 29.8871 60.3575C29.8868 60.3582 29.8865 60.3588 29.8862 60.3595C29.8855 60.3594 29.8848 60.3593 29.8841 60.3593C29.7836 60.3504 29.6346 60.3359 29.4425 60.3137C29.0581 60.2694 28.501 60.1944 27.813 60.0717C26.4368 59.8263 24.5388 59.3906 22.4535 58.6295C18.2798 57.1063 13.3768 54.2884 10.3858 49.1078C6.69343 42.7124 7.97656 35.5558 9.12256 30.8484Z" fill="url(#paint7_angular_1272_13330)"/>
<path d="M9.12256 30.8484C9.4796 29.3863 9.73977 28.1389 9.91074 27.2567C9.99623 26.8156 10.0594 26.4657 10.1013 26.2258C10.1078 26.1884 10.1138 26.1536 10.1193 26.1216C10.15 26.1329 10.1833 26.145 10.2192 26.1581C10.4484 26.2415 10.7836 26.3613 11.2091 26.5074C12.0598 26.7996 13.2714 27.1972 14.7159 27.6189C19.3657 28.9802 26.2051 31.4472 29.8975 37.8427C32.8885 43.0232 32.8761 48.6791 32.107 53.056C31.7228 55.2428 31.1505 57.1048 30.6744 58.4197C30.4364 59.0769 30.2226 59.597 30.0687 59.9522C29.9917 60.1297 29.9297 60.266 29.8871 60.3575C29.8868 60.3582 29.8865 60.3588 29.8862 60.3595C29.8855 60.3594 29.8848 60.3593 29.8841 60.3593C29.7836 60.3504 29.6346 60.3359 29.4425 60.3137C29.0581 60.2694 28.501 60.1944 27.813 60.0717C26.4368 59.8263 24.5388 59.3906 22.4535 58.6295C18.2798 57.1063 13.3768 54.2884 10.3858 49.1078C6.69343 42.7124 7.97656 35.5558 9.12256 30.8484Z" stroke="#32353E" stroke-width="0.443213"/>
</mask>
<g mask="url(#mask1_1272_13330)">
<path d="M9.12329 30.8485C9.48033 29.3865 9.74051 28.1391 9.91147 27.2569C9.99696 26.8157 10.0602 26.4658 10.102 26.2259C10.1086 26.1885 10.1146 26.1538 10.1201 26.1217C10.1507 26.133 10.184 26.1452 10.22 26.1582C10.4491 26.2416 10.7844 26.3614 11.2098 26.5075C12.0606 26.7997 13.2721 27.1973 14.7167 27.6191C19.3664 28.9803 26.2058 31.4473 29.8983 37.8428C32.8893 43.0234 32.8769 48.6792 32.1078 53.0561C31.7235 55.243 31.1513 57.1049 30.6752 58.4198C30.4372 59.0771 30.2234 59.5972 30.0694 59.9523C29.9924 60.1298 29.9304 60.2661 29.8878 60.3576C29.8875 60.3583 29.8872 60.3589 29.8869 60.3596C29.8862 60.3595 29.8855 60.3594 29.8849 60.3594C29.7843 60.3505 29.6354 60.336 29.4432 60.3139C29.0588 60.2696 28.5017 60.1945 27.8138 60.0719C26.4375 59.8265 24.5396 59.3907 22.4542 58.6296C18.2805 57.1065 13.3776 54.2885 10.3865 49.1079C6.69417 42.7125 7.97729 35.5559 9.12329 30.8485Z" fill="#4B4D53"/>
<path d="M9.12329 30.8485C9.48033 29.3865 9.74051 28.1391 9.91147 27.2569C9.99696 26.8157 10.0602 26.4658 10.102 26.2259C10.1086 26.1885 10.1146 26.1538 10.1201 26.1217C10.1507 26.133 10.184 26.1452 10.22 26.1582C10.4491 26.2416 10.7844 26.3614 11.2098 26.5075C12.0606 26.7997 13.2721 27.1973 14.7167 27.6191C19.3664 28.9803 26.2058 31.4473 29.8983 37.8428C32.8893 43.0234 32.8769 48.6792 32.1078 53.0561C31.7235 55.243 31.1513 57.1049 30.6752 58.4198C30.4372 59.0771 30.2234 59.5972 30.0694 59.9523C29.9924 60.1298 29.9304 60.2661 29.8878 60.3576C29.8875 60.3583 29.8872 60.3589 29.8869 60.3596C29.8862 60.3595 29.8855 60.3594 29.8849 60.3594C29.7843 60.3505 29.6354 60.336 29.4432 60.3139C29.0588 60.2696 28.5017 60.1945 27.8138 60.0719C26.4375 59.8265 24.5396 59.3907 22.4542 58.6296C18.2805 57.1065 13.3776 54.2885 10.3865 49.1079C6.69417 42.7125 7.97729 35.5559 9.12329 30.8485Z" fill="url(#paint8_angular_1272_13330)"/>
<path d="M9.12329 30.8485C9.48033 29.3865 9.74051 28.1391 9.91147 27.2569C9.99696 26.8157 10.0602 26.4658 10.102 26.2259C10.1086 26.1885 10.1146 26.1538 10.1201 26.1217C10.1507 26.133 10.184 26.1452 10.22 26.1582C10.4491 26.2416 10.7844 26.3614 11.2098 26.5075C12.0606 26.7997 13.2721 27.1973 14.7167 27.6191C19.3664 28.9803 26.2058 31.4473 29.8983 37.8428C32.8893 43.0234 32.8769 48.6792 32.1078 53.0561C31.7235 55.243 31.1513 57.1049 30.6752 58.4198C30.4372 59.0771 30.2234 59.5972 30.0694 59.9523C29.9924 60.1298 29.9304 60.2661 29.8878 60.3576C29.8875 60.3583 29.8872 60.3589 29.8869 60.3596C29.8862 60.3595 29.8855 60.3594 29.8849 60.3594C29.7843 60.3505 29.6354 60.336 29.4432 60.3139C29.0588 60.2696 28.5017 60.1945 27.8138 60.0719C26.4375 59.8265 24.5396 59.3907 22.4542 58.6296C18.2805 57.1065 13.3776 54.2885 10.3865 49.1079C6.69417 42.7125 7.97729 35.5559 9.12329 30.8485Z" stroke="#32353E" stroke-width="0.443213"/>
<g filter="url(#filter9_f_1272_13330)">
<path d="M29.7646 60.1418C29.3611 60.1127 16.358 59.0815 10.5636 49.0455C6.92764 42.7477 8.16926 35.7296 9.26435 31.1608C9.88785 28.5635 10.2004 26.6697 10.2526 26.3705C10.2366 27.1585 10.0495 39.9116 14.783 48.1104C19.5166 56.3091 29.4565 60.0222 29.7646 60.1418Z" fill="black" fill-opacity="0.7"/>
</g>
<g filter="url(#filter10_f_1272_13330)">
<path d="M29.7102 60.3882L21.6516 46.4302C25.7354 54.3976 21.2264 57.28 17.4706 56.1979C18.7089 57.548 26.0503 59.5137 29.7102 60.3882Z" fill="black" fill-opacity="0.6"/>
</g>
<g filter="url(#filter11_f_1272_13330)">
<path d="M30.0231 60.5917L22.3627 47.1506C27.2208 54.671 29.7137 43.5871 30.6545 39.7934C34.5421 49.5117 31.0957 56.9849 30.0231 60.5917Z" fill="black" fill-opacity="0.6"/>
</g>
<g filter="url(#filter12_f_1272_13330)">
<path d="M10.292 26.3541C20.2443 28.9924 26.388 32.7325 29.3539 37.3181C30.2186 39.0127 31.9942 41.8913 32.143 46.1096C30.0301 42.0442 21.8793 32.7419 13.573 32.037L12.2917 29.8176L10.292 26.3541Z" fill="url(#paint9_linear_1272_13330)"/>
</g>
<g filter="url(#filter13_f_1272_13330)">
<line x1="29.6196" y1="60.8242" x2="9.86156" y2="26.6022" stroke="#32353E" stroke-opacity="0.5" stroke-width="0.443213"/>
</g>
<g filter="url(#filter14_f_1272_13330)">
<path d="M30.2427 60.4653L10.4846 26.2434" stroke="white" stroke-opacity="0.2" stroke-width="0.443213" stroke-linecap="round"/>
</g>
</g>
<mask id="mask2_1272_13330" style="mask-type:alpha" maskUnits="userSpaceOnUse" x="9" y="55" width="36" height="26">
<path d="M11.111 62.4919C10.6892 61.0472 10.2908 59.8368 9.99779 58.9873C9.85126 58.5626 9.73104 58.2279 9.64736 57.9992C9.6343 57.9636 9.62213 57.9305 9.61089 57.9C9.64305 57.8944 9.67798 57.8883 9.71562 57.8816C9.95576 57.8393 10.306 57.7754 10.7475 57.6892C11.6304 57.5169 12.8784 57.2554 14.3403 56.8984C19.0477 55.7524 26.2044 54.4692 32.5998 58.1616C37.7804 61.1526 40.5976 66.0569 42.12 70.232C42.8806 72.318 43.316 74.2166 43.5611 75.5934C43.6837 76.2816 43.7586 76.8389 43.8028 77.2234C43.8249 77.4157 43.8393 77.5647 43.8482 77.6653C43.8483 77.666 43.8483 77.6667 43.8484 77.6674C43.8478 77.6677 43.8471 77.668 43.8465 77.6683C43.755 77.7108 43.6188 77.7728 43.4413 77.8497C43.0862 78.0035 42.5662 78.2171 41.9091 78.4548C40.5945 78.9304 38.733 79.502 36.5465 79.8856C32.1704 80.6533 26.5153 80.6644 21.3347 77.6733C14.9393 73.981 12.4723 67.1416 11.111 62.4919Z" fill="#4B4D53"/>
<path d="M11.111 62.4919C10.6892 61.0472 10.2908 59.8368 9.99779 58.9873C9.85126 58.5626 9.73104 58.2279 9.64736 57.9992C9.6343 57.9636 9.62213 57.9305 9.61089 57.9C9.64305 57.8944 9.67798 57.8883 9.71562 57.8816C9.95576 57.8393 10.306 57.7754 10.7475 57.6892C11.6304 57.5169 12.8784 57.2554 14.3403 56.8984C19.0477 55.7524 26.2044 54.4692 32.5998 58.1616C37.7804 61.1526 40.5976 66.0569 42.12 70.232C42.8806 72.318 43.316 74.2166 43.5611 75.5934C43.6837 76.2816 43.7586 76.8389 43.8028 77.2234C43.8249 77.4157 43.8393 77.5647 43.8482 77.6653C43.8483 77.666 43.8483 77.6667 43.8484 77.6674C43.8478 77.6677 43.8471 77.668 43.8465 77.6683C43.755 77.7108 43.6188 77.7728 43.4413 77.8497C43.0862 78.0035 42.5662 78.2171 41.9091 78.4548C40.5945 78.9304 38.733 79.502 36.5465 79.8856C32.1704 80.6533 26.5153 80.6644 21.3347 77.6733C14.9393 73.981 12.4723 67.1416 11.111 62.4919Z" fill="url(#paint10_angular_1272_13330)"/>
<path d="M11.111 62.4919C10.6892 61.0472 10.2908 59.8368 9.99779 58.9873C9.85126 58.5626 9.73104 58.2279 9.64736 57.9992C9.6343 57.9636 9.62213 57.9305 9.61089 57.9C9.64305 57.8944 9.67798 57.8883 9.71562 57.8816C9.95576 57.8393 10.306 57.7754 10.7475 57.6892C11.6304 57.5169 12.8784 57.2554 14.3403 56.8984C19.0477 55.7524 26.2044 54.4692 32.5998 58.1616C37.7804 61.1526 40.5976 66.0569 42.12 70.232C42.8806 72.318 43.316 74.2166 43.5611 75.5934C43.6837 76.2816 43.7586 76.8389 43.8028 77.2234C43.8249 77.4157 43.8393 77.5647 43.8482 77.6653C43.8483 77.666 43.8483 77.6667 43.8484 77.6674C43.8478 77.6677 43.8471 77.668 43.8465 77.6683C43.755 77.7108 43.6188 77.7728 43.4413 77.8497C43.0862 78.0035 42.5662 78.2171 41.9091 78.4548C40.5945 78.9304 38.733 79.502 36.5465 79.8856C32.1704 80.6533 26.5153 80.6644 21.3347 77.6733C14.9393 73.981 12.4723 67.1416 11.111 62.4919Z" stroke="#32353E" stroke-width="0.443213"/>
</mask>
<g mask="url(#mask2_1272_13330)">
<path d="M11.1103 62.4925C10.6885 61.0478 10.2901 59.8374 9.99705 58.9879C9.85052 58.5632 9.7303 58.2285 9.64662 57.9999C9.63357 57.9642 9.6214 57.9311 9.61016 57.9006C9.64231 57.895 9.67725 57.8889 9.71489 57.8823C9.95502 57.8399 10.3053 57.776 10.7468 57.6898C11.6296 57.5175 12.8777 57.256 14.3396 56.899C19.047 55.753 26.2036 54.4698 32.5991 58.1622C37.7797 61.1532 40.5968 66.0575 42.1193 70.2326C42.8799 72.3186 43.3153 74.2172 43.5604 75.594C43.6829 76.2822 43.7578 76.8395 43.802 77.2241C43.8242 77.4163 43.8386 77.5653 43.8475 77.6659C43.8475 77.6666 43.8476 77.6673 43.8477 77.668C43.847 77.6683 43.8464 77.6686 43.8458 77.6689C43.7543 77.7114 43.618 77.7734 43.4405 77.8503C43.0855 78.0041 42.5655 78.2177 41.9084 78.4554C40.5938 78.931 38.7323 79.5026 36.5458 79.8862C32.1697 80.6539 26.5146 80.665 21.334 77.6739C14.9386 73.9816 12.4715 67.1422 11.1103 62.4925Z" fill="#4B4D53"/>
<path d="M11.1103 62.4925C10.6885 61.0478 10.2901 59.8374 9.99705 58.9879C9.85052 58.5632 9.7303 58.2285 9.64662 57.9999C9.63357 57.9642 9.6214 57.9311 9.61016 57.9006C9.64231 57.895 9.67725 57.8889 9.71489 57.8823C9.95502 57.8399 10.3053 57.776 10.7468 57.6898C11.6296 57.5175 12.8777 57.256 14.3396 56.899C19.047 55.753 26.2036 54.4698 32.5991 58.1622C37.7797 61.1532 40.5968 66.0575 42.1193 70.2326C42.8799 72.3186 43.3153 74.2172 43.5604 75.594C43.6829 76.2822 43.7578 76.8395 43.802 77.2241C43.8242 77.4163 43.8386 77.5653 43.8475 77.6659C43.8475 77.6666 43.8476 77.6673 43.8477 77.668C43.847 77.6683 43.8464 77.6686 43.8458 77.6689C43.7543 77.7114 43.618 77.7734 43.4405 77.8503C43.0855 78.0041 42.5655 78.2177 41.9084 78.4554C40.5938 78.931 38.7323 79.5026 36.5458 79.8862C32.1697 80.6539 26.5146 80.665 21.334 77.6739C14.9386 73.9816 12.4715 67.1422 11.1103 62.4925Z" fill="url(#paint11_angular_1272_13330)"/>
<path d="M11.1103 62.4925C10.6885 61.0478 10.2901 59.8374 9.99705 58.9879C9.85052 58.5632 9.7303 58.2285 9.64662 57.9999C9.63357 57.9642 9.6214 57.9311 9.61016 57.9006C9.64231 57.895 9.67725 57.8889 9.71489 57.8823C9.95502 57.8399 10.3053 57.776 10.7468 57.6898C11.6296 57.5175 12.8777 57.256 14.3396 56.899C19.047 55.753 26.2036 54.4698 32.5991 58.1622C37.7797 61.1532 40.5968 66.0575 42.1193 70.2326C42.8799 72.3186 43.3153 74.2172 43.5604 75.594C43.6829 76.2822 43.7578 76.8395 43.802 77.2241C43.8242 77.4163 43.8386 77.5653 43.8475 77.6659C43.8475 77.6666 43.8476 77.6673 43.8477 77.668C43.847 77.6683 43.8464 77.6686 43.8458 77.6689C43.7543 77.7114 43.618 77.7734 43.4405 77.8503C43.0855 78.0041 42.5655 78.2177 41.9084 78.4554C40.5938 78.931 38.7323 79.5026 36.5458 79.8862C32.1697 80.6539 26.5146 80.665 21.334 77.6739C14.9386 73.9816 12.4715 67.1422 11.1103 62.4925Z" stroke="#32353E" stroke-width="0.443213"/>
<g filter="url(#filter15_f_1272_13330)">
<path d="M43.6333 77.5404C43.2694 77.717 31.4927 83.3255 21.4567 77.5312C15.159 73.8952 12.7252 67.1965 11.3892 62.6923C10.6305 60.1312 9.95424 58.3348 9.84987 58.0496C10.23 58.7401 16.4445 69.8782 24.6433 74.6117C32.842 79.3453 43.3068 77.5909 43.6333 77.5404Z" fill="black" fill-opacity="0.8"/>
</g>
<g filter="url(#filter16_f_1272_13330)">
<path d="M43.7072 77.7808L29.7492 69.7221C37.2696 74.5802 34.8059 79.3309 31.0122 80.2717C32.7597 80.8217 40.1004 78.8533 43.7072 77.7808Z" fill="black" fill-opacity="0.6"/>
</g>
<g filter="url(#filter17_f_1272_13330)">
<path d="M44.0827 77.7997L31.3325 69.5808C39.2999 73.6647 40.9745 69.3159 39.8924 65.56C41.2425 66.7984 43.2081 74.1398 44.0827 77.7997Z" fill="black" fill-opacity="0.4"/>
</g>
<g filter="url(#filter18_f_1272_13330)">
<path d="M9.87615 58.0156C19.8142 55.3243 27.0049 55.4915 31.8662 57.9798C33.4624 59.015 36.4394 60.6202 38.6775 64.1989C34.8149 61.7346 23.1049 57.754 15.559 61.2966L13.3397 60.0153L9.87615 58.0156Z" fill="url(#paint12_linear_1272_13330)"/>
</g>
<g filter="url(#filter19_f_1272_13330)">
<line x1="43.8504" y1="78.2046" x2="9.62845" y2="58.4466" stroke="#32353E" stroke-opacity="0.5" stroke-width="0.443213"/>
</g>
<g filter="url(#filter20_f_1272_13330)">
<path d="M44.208 77.5818L9.98608 57.8237" stroke="white" stroke-opacity="0.2" stroke-width="0.443213" stroke-linecap="round"/>
</g>
</g>
<mask id="mask3_1272_13330" style="mask-type:alpha" maskUnits="userSpaceOnUse" x="26" y="73" width="41" height="24">
<path d="M30.6417 88.1846C29.554 87.1444 28.6038 86.2954 27.9253 85.7062C27.586 85.4116 27.3146 85.1819 27.1278 85.0257C27.0986 85.0014 27.0715 84.9788 27.0466 84.958C27.0716 84.9371 27.0988 84.9143 27.1281 84.8898C27.3149 84.733 27.5863 84.5025 27.9255 84.2072C28.6039 83.6165 29.554 82.766 30.6416 81.7259C34.1453 78.3797 39.7015 73.6901 47.0864 73.6901C53.0684 73.6901 57.9603 76.5288 61.3663 79.3833C63.068 80.8095 64.3944 82.236 65.295 83.3058C65.7452 83.8405 66.0888 84.2858 66.3193 84.5967C66.4346 84.7521 66.5216 84.8739 66.5796 84.9566C66.58 84.9572 66.5804 84.9578 66.5808 84.9583C66.5804 84.9589 66.58 84.9595 66.5796 84.96C66.5216 85.0426 66.4346 85.1644 66.3194 85.3197C66.0888 85.6305 65.7453 86.0754 65.2951 86.6099C64.3944 87.6791 63.068 89.1048 61.3663 90.5303C57.9603 93.3832 53.0684 96.2203 47.0864 96.2203C39.7016 96.2203 34.1454 91.5308 30.6417 88.1846Z" fill="#4B4D53"/>
<path d="M30.6417 88.1846C29.554 87.1444 28.6038 86.2954 27.9253 85.7062C27.586 85.4116 27.3146 85.1819 27.1278 85.0257C27.0986 85.0014 27.0715 84.9788 27.0466 84.958C27.0716 84.9371 27.0988 84.9143 27.1281 84.8898C27.3149 84.733 27.5863 84.5025 27.9255 84.2072C28.6039 83.6165 29.554 82.766 30.6416 81.7259C34.1453 78.3797 39.7015 73.6901 47.0864 73.6901C53.0684 73.6901 57.9603 76.5288 61.3663 79.3833C63.068 80.8095 64.3944 82.236 65.295 83.3058C65.7452 83.8405 66.0888 84.2858 66.3193 84.5967C66.4346 84.7521 66.5216 84.8739 66.5796 84.9566C66.58 84.9572 66.5804 84.9578 66.5808 84.9583C66.5804 84.9589 66.58 84.9595 66.5796 84.96C66.5216 85.0426 66.4346 85.1644 66.3194 85.3197C66.0888 85.6305 65.7453 86.0754 65.2951 86.6099C64.3944 87.6791 63.068 89.1048 61.3663 90.5303C57.9603 93.3832 53.0684 96.2203 47.0864 96.2203C39.7016 96.2203 34.1454 91.5308 30.6417 88.1846Z" fill="url(#paint13_angular_1272_13330)"/>
<path d="M30.6417 88.1846C29.554 87.1444 28.6038 86.2954 27.9253 85.7062C27.586 85.4116 27.3146 85.1819 27.1278 85.0257C27.0986 85.0014 27.0715 84.9788 27.0466 84.958C27.0716 84.9371 27.0988 84.9143 27.1281 84.8898C27.3149 84.733 27.5863 84.5025 27.9255 84.2072C28.6039 83.6165 29.554 82.766 30.6416 81.7259C34.1453 78.3797 39.7015 73.6901 47.0864 73.6901C53.0684 73.6901 57.9603 76.5288 61.3663 79.3833C63.068 80.8095 64.3944 82.236 65.295 83.3058C65.7452 83.8405 66.0888 84.2858 66.3193 84.5967C66.4346 84.7521 66.5216 84.8739 66.5796 84.9566C66.58 84.9572 66.5804 84.9578 66.5808 84.9583C66.5804 84.9589 66.58 84.9595 66.5796 84.96C66.5216 85.0426 66.4346 85.1644 66.3194 85.3197C66.0888 85.6305 65.7453 86.0754 65.2951 86.6099C64.3944 87.6791 63.068 89.1048 61.3663 90.5303C57.9603 93.3832 53.0684 96.2203 47.0864 96.2203C39.7016 96.2203 34.1454 91.5308 30.6417 88.1846Z" stroke="#32353E" stroke-width="0.443213"/>
</mask>
<g mask="url(#mask3_1272_13330)">
<path d="M30.6422 88.1852C29.5545 87.145 28.6043 86.296 27.9258 85.7068C27.5865 85.4122 27.3151 85.1825 27.1283 85.0263C27.0991 85.002 27.072 84.9794 27.047 84.9586C27.0721 84.9377 27.0993 84.9149 27.1286 84.8904C27.3153 84.7336 27.5867 84.5031 27.926 84.2078C28.6044 83.6171 29.5545 82.7666 30.642 81.7265C34.1458 78.3803 39.702 73.6907 47.0869 73.6907C53.0689 73.6907 57.9608 76.5294 61.3667 79.3839C63.0685 80.8101 64.3948 82.2366 65.2955 83.3064C65.7457 83.8412 66.0893 84.2864 66.3198 84.5973C66.4351 84.7527 66.5221 84.8746 66.5801 84.9572C66.5805 84.9578 66.5809 84.9584 66.5813 84.9589C66.5809 84.9595 66.5805 84.9601 66.5801 84.9606C66.5221 85.0432 66.4351 85.165 66.3199 85.3204C66.0893 85.6311 65.7458 86.0761 65.2956 86.6105C64.3949 87.6797 63.0685 89.1054 61.3668 90.5309C57.9608 93.3838 53.0689 96.2209 47.0869 96.2209C39.7021 96.2209 34.1459 91.5314 30.6422 88.1852Z" fill="#4B4D53"/>
<path d="M30.6422 88.1852C29.5545 87.145 28.6043 86.296 27.9258 85.7068C27.5865 85.4122 27.3151 85.1825 27.1283 85.0263C27.0991 85.002 27.072 84.9794 27.047 84.9586C27.0721 84.9377 27.0993 84.9149 27.1286 84.8904C27.3153 84.7336 27.5867 84.5031 27.926 84.2078C28.6044 83.6171 29.5545 82.7666 30.642 81.7265C34.1458 78.3803 39.702 73.6907 47.0869 73.6907C53.0689 73.6907 57.9608 76.5294 61.3667 79.3839C63.0685 80.8101 64.3948 82.2366 65.2955 83.3064C65.7457 83.8412 66.0893 84.2864 66.3198 84.5973C66.4351 84.7527 66.5221 84.8746 66.5801 84.9572C66.5805 84.9578 66.5809 84.9584 66.5813 84.9589C66.5809 84.9595 66.5805 84.9601 66.5801 84.9606C66.5221 85.0432 66.4351 85.165 66.3199 85.3204C66.0893 85.6311 65.7458 86.0761 65.2956 86.6105C64.3949 87.6797 63.0685 89.1054 61.3668 90.5309C57.9608 93.3838 53.0689 96.2209 47.0869 96.2209C39.7021 96.2209 34.1459 91.5314 30.6422 88.1852Z" fill="url(#paint14_angular_1272_13330)"/>
<path d="M30.6422 88.1852C29.5545 87.145 28.6043 86.296 27.9258 85.7068C27.5865 85.4122 27.3151 85.1825 27.1283 85.0263C27.0991 85.002 27.072 84.9794 27.047 84.9586C27.0721 84.9377 27.0993 84.9149 27.1286 84.8904C27.3153 84.7336 27.5867 84.5031 27.926 84.2078C28.6044 83.6171 29.5545 82.7666 30.642 81.7265C34.1458 78.3803 39.702 73.6907 47.0869 73.6907C53.0689 73.6907 57.9608 76.5294 61.3667 79.3839C63.0685 80.8101 64.3948 82.2366 65.2955 83.3064C65.7457 83.8412 66.0893 84.2864 66.3198 84.5973C66.4351 84.7527 66.5221 84.8746 66.5801 84.9572C66.5805 84.9578 66.5809 84.9584 66.5813 84.9589C66.5809 84.9595 66.5805 84.9601 66.5801 84.9606C66.5221 85.0432 66.4351 85.165 66.3199 85.3204C66.0893 85.6311 65.7458 86.0761 65.2956 86.6105C64.3949 87.6797 63.0685 89.1054 61.3668 90.5309C57.9608 93.3838 53.0689 96.2209 47.0869 96.2209C39.7021 96.2209 34.1459 91.5314 30.6422 88.1852Z" stroke="#32353E" stroke-width="0.443213"/>
<g filter="url(#filter21_f_1272_13330)">
<path d="M66.3311 84.9553C66.1043 85.2902 58.7096 96.0357 47.121 96.0357C39.849 96.0357 34.3919 91.4513 30.9828 88.2185C29.0452 86.3799 27.5614 85.1623 27.3284 84.9675C28.0028 85.3754 38.9538 91.914 48.4209 91.914C57.888 91.914 66.0736 85.1623 66.3311 84.9553Z" fill="black" fill-opacity="0.7"/>
</g>
<g filter="url(#filter22_f_1272_13330)">
<path d="M66.5169 85.1255H50.3996C59.3415 85.5725 59.5832 90.9186 56.7681 93.6302C58.5565 93.2328 63.9296 87.8578 66.5169 85.1255Z" fill="black" fill-opacity="0.6"/>
</g>
<g filter="url(#filter23_f_1272_13330)">
<path d="M66.8499 84.9553L51.6985 84.2127C60.6404 83.7657 59.9162 79.1622 57.1012 76.4506C58.8895 76.848 64.2626 82.223 66.8499 84.9553Z" fill="black" fill-opacity="0.2"/>
</g>
<g filter="url(#filter24_f_1272_13330)">
<path d="M27.3357 84.9263C34.5967 77.6265 40.9076 74.1759 46.3618 73.9003C48.2616 73.9987 51.6425 73.9003 55.37 75.8805C50.7928 75.6777 38.6614 78.0853 33.8977 84.9263H31.335H27.3357Z" fill="url(#paint15_linear_1272_13330)"/>
</g>
<g filter="url(#filter25_f_1272_13330)">
<line x1="66.8506" y1="85.4222" x2="27.3345" y2="85.4222" stroke="#32353E" stroke-opacity="0.5" stroke-width="0.443213"/>
</g>
<g filter="url(#filter26_f_1272_13330)">
<path d="M66.8506 84.703L27.3345 84.703" stroke="white" stroke-opacity="0.2" stroke-width="0.443213" stroke-linecap="round"/>
</g>
</g>
<defs>
<filter id="filter0_f_1272_13330" x="48.6595" y="83.7749" width="20.1844" height="24.0925" filterUnits="userSpaceOnUse" color-interpolation-filters="sRGB">
<feFlood flood-opacity="0" result="BackgroundImageFix"/>
<feBlend mode="normal" in="SourceGraphic" in2="BackgroundImageFix" result="shape"/>
<feGaussianBlur stdDeviation="0.886426" result="effect1_foregroundBlur_1272_13330"/>
</filter>
<filter id="filter1_f_1272_13330" x="48.6595" y="83.7749" width="20.1844" height="24.0925" filterUnits="userSpaceOnUse" color-interpolation-filters="sRGB">
<feFlood flood-opacity="0" result="BackgroundImageFix"/>
<feBlend mode="normal" in="SourceGraphic" in2="BackgroundImageFix" result="shape"/>
<feGaussianBlur stdDeviation="0.886426" result="effect1_foregroundBlur_1272_13330"/>
</filter>
<filter id="filter2_f_1272_13330" x="23.1673" y="11.694" width="21.8087" height="33.258" filterUnits="userSpaceOnUse" color-interpolation-filters="sRGB">
<feFlood flood-opacity="0" result="BackgroundImageFix"/>
<feBlend mode="normal" in="SourceGraphic" in2="BackgroundImageFix" result="shape"/>
<feGaussianBlur stdDeviation="2.65928" result="effect1_foregroundBlur_1272_13330"/>
</filter>
<filter id="filter3_f_1272_13330" x="11.9957" y="11.694" width="21.8087" height="33.258" filterUnits="userSpaceOnUse" color-interpolation-filters="sRGB">
<feFlood flood-opacity="0" result="BackgroundImageFix"/>
<feBlend mode="normal" in="SourceGraphic" in2="BackgroundImageFix" result="shape"/>
<feGaussianBlur stdDeviation="2.65928" result="effect1_foregroundBlur_1272_13330"/>
</filter>
<filter id="filter4_f_1272_13330" x="14.4913" y="18.3825" width="19.1418" height="26.7544" filterUnits="userSpaceOnUse" color-interpolation-filters="sRGB">
<feFlood flood-opacity="0" result="BackgroundImageFix"/>
<feBlend mode="normal" in="SourceGraphic" in2="BackgroundImageFix" result="shape"/>
<feGaussianBlur stdDeviation="2.65928" result="effect1_foregroundBlur_1272_13330"/>
</filter>
<filter id="filter5_f_1272_13330" x="24.9692" y="-2.90874" width="18.1175" height="35.1257" filterUnits="userSpaceOnUse" color-interpolation-filters="sRGB">
<feFlood flood-opacity="0" result="BackgroundImageFix"/>
<feBlend mode="normal" in="SourceGraphic" in2="BackgroundImageFix" result="shape"/>
<feGaussianBlur stdDeviation="1.77285" result="effect1_foregroundBlur_1272_13330"/>
</filter>
<filter id="filter6_f_1272_13330" x="13.9123" y="-2.90874" width="18.1175" height="35.1257" filterUnits="userSpaceOnUse" color-interpolation-filters="sRGB">
<feFlood flood-opacity="0" result="BackgroundImageFix"/>
<feBlend mode="normal" in="SourceGraphic" in2="BackgroundImageFix" result="shape"/>
<feGaussianBlur stdDeviation="1.77285" result="effect1_foregroundBlur_1272_13330"/>
</filter>
<filter id="filter7_f_1272_13330" x="26.9112" y="-0.250562" width="2.21597" height="41.289" filterUnits="userSpaceOnUse" color-interpolation-filters="sRGB">
<feFlood flood-opacity="0" result="BackgroundImageFix"/>
<feBlend mode="normal" in="SourceGraphic" in2="BackgroundImageFix" result="shape"/>
<feGaussianBlur stdDeviation="0.443213" result="effect1_foregroundBlur_1272_13330"/>
</filter>
<filter id="filter8_f_1272_13330" x="27.6287" y="-0.47212" width="2.21621" height="41.7321" filterUnits="userSpaceOnUse" color-interpolation-filters="sRGB">
<feFlood flood-opacity="0" result="BackgroundImageFix"/>
<feBlend mode="normal" in="SourceGraphic" in2="BackgroundImageFix" result="shape"/>
<feGaussianBlur stdDeviation="0.443213" result="effect1_foregroundBlur_1272_13330"/>
</filter>
<filter id="filter9_f_1272_13330" x="2.82133" y="21.0519" width="32.2619" height="44.4084" filterUnits="userSpaceOnUse" color-interpolation-filters="sRGB">
<feFlood flood-opacity="0" result="BackgroundImageFix"/>
<feBlend mode="normal" in="SourceGraphic" in2="BackgroundImageFix" result="shape"/>
<feGaussianBlur stdDeviation="2.65928" result="effect1_foregroundBlur_1272_13330"/>
</filter>
<filter id="filter10_f_1272_13330" x="12.1519" y="41.1117" width="22.8769" height="24.595" filterUnits="userSpaceOnUse" color-interpolation-filters="sRGB">
<feFlood flood-opacity="0" result="BackgroundImageFix"/>
<feBlend mode="normal" in="SourceGraphic" in2="BackgroundImageFix" result="shape"/>
<feGaussianBlur stdDeviation="2.65928" result="effect1_foregroundBlur_1272_13330"/>
</filter>
<filter id="filter11_f_1272_13330" x="17.0442" y="34.4748" width="20.7323" height="31.4355" filterUnits="userSpaceOnUse" color-interpolation-filters="sRGB">
<feFlood flood-opacity="0" result="BackgroundImageFix"/>
<feBlend mode="normal" in="SourceGraphic" in2="BackgroundImageFix" result="shape"/>
<feGaussianBlur stdDeviation="2.65928" result="effect1_foregroundBlur_1272_13330"/>
</filter>
<filter id="filter12_f_1272_13330" x="6.74629" y="22.8084" width="28.9425" height="26.8469" filterUnits="userSpaceOnUse" color-interpolation-filters="sRGB">
<feFlood flood-opacity="0" result="BackgroundImageFix"/>
<feBlend mode="normal" in="SourceGraphic" in2="BackgroundImageFix" result="shape"/>
<feGaussianBlur stdDeviation="1.77285" result="effect1_foregroundBlur_1272_13330"/>
</filter>
<filter id="filter13_f_1272_13330" x="8.78325" y="25.605" width="21.9147" height="36.2163" filterUnits="userSpaceOnUse" color-interpolation-filters="sRGB">
<feFlood flood-opacity="0" result="BackgroundImageFix"/>
<feBlend mode="normal" in="SourceGraphic" in2="BackgroundImageFix" result="shape"/>
<feGaussianBlur stdDeviation="0.443213" result="effect1_foregroundBlur_1272_13330"/>
</filter>
<filter id="filter14_f_1272_13330" x="9.37651" y="25.1353" width="21.9743" height="36.4381" filterUnits="userSpaceOnUse" color-interpolation-filters="sRGB">
<feFlood flood-opacity="0" result="BackgroundImageFix"/>
<feBlend mode="normal" in="SourceGraphic" in2="BackgroundImageFix" result="shape"/>
<feGaussianBlur stdDeviation="0.443213" result="effect1_foregroundBlur_1272_13330"/>
</filter>
<filter id="filter15_f_1272_13330" x="4.53129" y="52.731" width="44.4206" height="32.7361" filterUnits="userSpaceOnUse" color-interpolation-filters="sRGB">
<feFlood flood-opacity="0" result="BackgroundImageFix"/>
<feBlend mode="normal" in="SourceGraphic" in2="BackgroundImageFix" result="shape"/>
<feGaussianBlur stdDeviation="2.65928" result="effect1_foregroundBlur_1272_13330"/>
</filter>
<filter id="filter16_f_1272_13330" x="24.4307" y="64.4036" width="24.5951" height="21.2818" filterUnits="userSpaceOnUse" color-interpolation-filters="sRGB">
<feFlood flood-opacity="0" result="BackgroundImageFix"/>
<feBlend mode="normal" in="SourceGraphic" in2="BackgroundImageFix" result="shape"/>
<feGaussianBlur stdDeviation="2.65928" result="effect1_foregroundBlur_1272_13330"/>
</filter>
<filter id="filter17_f_1272_13330" x="26.014" y="60.2415" width="23.3874" height="22.8767" filterUnits="userSpaceOnUse" color-interpolation-filters="sRGB">
<feFlood flood-opacity="0" result="BackgroundImageFix"/>
<feBlend mode="normal" in="SourceGraphic" in2="BackgroundImageFix" result="shape"/>
<feGaussianBlur stdDeviation="2.65928" result="effect1_foregroundBlur_1272_13330"/>
</filter>
<filter id="filter18_f_1272_13330" x="6.33052" y="52.5093" width="35.8927" height="15.2353" filterUnits="userSpaceOnUse" color-interpolation-filters="sRGB">
<feFlood flood-opacity="0" result="BackgroundImageFix"/>
<feBlend mode="normal" in="SourceGraphic" in2="BackgroundImageFix" result="shape"/>
<feGaussianBlur stdDeviation="1.77285" result="effect1_foregroundBlur_1272_13330"/>
</filter>
<filter id="filter19_f_1272_13330" x="8.63115" y="57.3682" width="36.2165" height="21.9147" filterUnits="userSpaceOnUse" color-interpolation-filters="sRGB">
<feFlood flood-opacity="0" result="BackgroundImageFix"/>
<feBlend mode="normal" in="SourceGraphic" in2="BackgroundImageFix" result="shape"/>
<feGaussianBlur stdDeviation="0.443213" result="effect1_foregroundBlur_1272_13330"/>
</filter>
<filter id="filter20_f_1272_13330" x="8.87798" y="56.7156" width="36.4381" height="21.9743" filterUnits="userSpaceOnUse" color-interpolation-filters="sRGB">
<feFlood flood-opacity="0" result="BackgroundImageFix"/>
<feBlend mode="normal" in="SourceGraphic" in2="BackgroundImageFix" result="shape"/>
<feGaussianBlur stdDeviation="0.443213" result="effect1_foregroundBlur_1272_13330"/>
</filter>
<filter id="filter21_f_1272_13330" x="22.0098" y="79.6368" width="49.6398" height="21.7174" filterUnits="userSpaceOnUse" color-interpolation-filters="sRGB">
<feFlood flood-opacity="0" result="BackgroundImageFix"/>
<feBlend mode="normal" in="SourceGraphic" in2="BackgroundImageFix" result="shape"/>
<feGaussianBlur stdDeviation="2.65928" result="effect1_foregroundBlur_1272_13330"/>
</filter>
<filter id="filter22_f_1272_13330" x="45.0811" y="79.8069" width="26.7543" height="19.1419" filterUnits="userSpaceOnUse" color-interpolation-filters="sRGB">
<feFlood flood-opacity="0" result="BackgroundImageFix"/>
<feBlend mode="normal" in="SourceGraphic" in2="BackgroundImageFix" result="shape"/>
<feGaussianBlur stdDeviation="2.65928" result="effect1_foregroundBlur_1272_13330"/>
</filter>
<filter id="filter23_f_1272_13330" x="46.3799" y="71.132" width="25.7885" height="19.1419" filterUnits="userSpaceOnUse" color-interpolation-filters="sRGB">
<feFlood flood-opacity="0" result="BackgroundImageFix"/>
<feBlend mode="normal" in="SourceGraphic" in2="BackgroundImageFix" result="shape"/>
<feGaussianBlur stdDeviation="2.65928" result="effect1_foregroundBlur_1272_13330"/>
</filter>
<filter id="filter24_f_1272_13330" x="23.79" y="70.3546" width="35.1258" height="18.1174" filterUnits="userSpaceOnUse" color-interpolation-filters="sRGB">
<feFlood flood-opacity="0" result="BackgroundImageFix"/>
<feBlend mode="normal" in="SourceGraphic" in2="BackgroundImageFix" result="shape"/>
<feGaussianBlur stdDeviation="1.77285" result="effect1_foregroundBlur_1272_13330"/>
</filter>
<filter id="filter25_f_1272_13330" x="26.448" y="84.3141" width="41.289" height="2.21609" filterUnits="userSpaceOnUse" color-interpolation-filters="sRGB">
<feFlood flood-opacity="0" result="BackgroundImageFix"/>
<feBlend mode="normal" in="SourceGraphic" in2="BackgroundImageFix" result="shape"/>
<feGaussianBlur stdDeviation="0.443213" result="effect1_foregroundBlur_1272_13330"/>
</filter>
<filter id="filter26_f_1272_13330" x="26.2264" y="83.595" width="41.7323" height="2.21597" filterUnits="userSpaceOnUse" color-interpolation-filters="sRGB">
<feFlood flood-opacity="0" result="BackgroundImageFix"/>
<feBlend mode="normal" in="SourceGraphic" in2="BackgroundImageFix" result="shape"/>
<feGaussianBlur stdDeviation="0.443213" result="effect1_foregroundBlur_1272_13330"/>
</filter>
<linearGradient id="paint0_linear_1272_13330" x1="65.0355" y1="87.7884" x2="66.108" y2="88.5983" gradientUnits="userSpaceOnUse">
<stop stop-color="#24272D"/>
<stop offset="1" stop-color="#24272D" stop-opacity="0"/>
</linearGradient>
<radialGradient id="paint1_angular_1272_13330" cx="0" cy="0" r="1" gradientUnits="userSpaceOnUse" gradientTransform="translate(28.4852 40.1515) rotate(-90) scale(40.1515 70.1742)">
<stop stop-color="#686A74"/>
<stop offset="1" stop-color="#686A74" stop-opacity="0"/>
</radialGradient>
<radialGradient id="paint2_angular_1272_13330" cx="0" cy="0" r="1" gradientUnits="userSpaceOnUse" gradientTransform="translate(28.4852 40.1517) rotate(-90) scale(40.1515 70.1742)">
<stop stop-color="#686A74"/>
<stop offset="1" stop-color="#686A74" stop-opacity="0"/>
</radialGradient>
<linearGradient id="paint3_linear_1272_13330" x1="32.2189" y1="35.4749" x2="25.99" y2="9.24166" gradientUnits="userSpaceOnUse">
<stop stop-color="#161618"/>
<stop offset="1" stop-color="#161618" stop-opacity="0"/>
</linearGradient>
<linearGradient id="paint4_linear_1272_13330" x1="24.7527" y1="35.4749" x2="30.9817" y2="9.24166" gradientUnits="userSpaceOnUse">
<stop stop-color="#161618"/>
<stop offset="1" stop-color="#161618" stop-opacity="0"/>
</linearGradient>
<linearGradient id="paint5_linear_1272_13330" x1="34.028" y1="-3.7202" x2="27.2037" y2="22.3299" gradientUnits="userSpaceOnUse">
<stop stop-color="white"/>
<stop offset="1" stop-color="white" stop-opacity="0"/>
</linearGradient>
<linearGradient id="paint6_linear_1272_13330" x1="15.784" y1="-4.07705" x2="24.8242" y2="16.2635" gradientUnits="userSpaceOnUse">
<stop stop-color="white"/>
<stop offset="1" stop-color="white" stop-opacity="0"/>
</linearGradient>
<radialGradient id="paint7_angular_1272_13330" cx="0" cy="0" r="1" gradientUnits="userSpaceOnUse" gradientTransform="translate(30.0234 60.591) rotate(-120) scale(40.1515 70.1742)">
<stop stop-color="#686A74"/>
<stop offset="1" stop-color="#686A74" stop-opacity="0"/>
</radialGradient>
<radialGradient id="paint8_angular_1272_13330" cx="0" cy="0" r="1" gradientUnits="userSpaceOnUse" gradientTransform="translate(30.0242 60.5911) rotate(-120) scale(40.1515 70.1742)">
<stop stop-color="#686A74"/>
<stop offset="1" stop-color="#686A74" stop-opacity="0"/>
</radialGradient>
<linearGradient id="paint9_linear_1272_13330" x1="24.7439" y1="26.1048" x2="18.0025" y2="39.7086" gradientUnits="userSpaceOnUse">
<stop stop-color="white"/>
<stop offset="1" stop-color="white" stop-opacity="0"/>
</linearGradient>
<radialGradient id="paint10_angular_1272_13330" cx="0" cy="0" r="1" gradientUnits="userSpaceOnUse" gradientTransform="translate(44.083 77.7993) rotate(-150) scale(40.1515 70.1742)">
<stop stop-color="#686A74"/>
<stop offset="1" stop-color="#686A74" stop-opacity="0"/>
</radialGradient>
<radialGradient id="paint11_angular_1272_13330" cx="0" cy="0" r="1" gradientUnits="userSpaceOnUse" gradientTransform="translate(44.0823 77.7999) rotate(-150) scale(40.1515 70.1742)">
<stop stop-color="#686A74"/>
<stop offset="1" stop-color="#686A74" stop-opacity="0"/>
</radialGradient>
<linearGradient id="paint12_linear_1272_13330" x1="22.4686" y1="45.1034" x2="23.2309" y2="65.7257" gradientUnits="userSpaceOnUse">
<stop stop-color="white"/>
<stop offset="1" stop-color="white" stop-opacity="0"/>
</linearGradient>
<radialGradient id="paint13_angular_1272_13330" cx="0" cy="0" r="1" gradientUnits="userSpaceOnUse" gradientTransform="translate(66.85 84.9553) rotate(-180) scale(40.1515 70.1742)">
<stop stop-color="#686A74"/>
<stop offset="1" stop-color="#686A74" stop-opacity="0"/>
</radialGradient>
<radialGradient id="paint14_angular_1272_13330" cx="0" cy="0" r="1" gradientUnits="userSpaceOnUse" gradientTransform="translate(66.8505 84.9559) rotate(-180) scale(40.1515 70.1742)">
<stop stop-color="#686A74"/>
<stop offset="1" stop-color="#686A74" stop-opacity="0"/>
</radialGradient>
<linearGradient id="paint15_linear_1272_13330" x1="31.785" y1="67.4478" x2="42.7563" y2="84.9261" gradientUnits="userSpaceOnUse">
<stop stop-color="white"/>
<stop offset="1" stop-color="white" stop-opacity="0"/>
</linearGradient>
</defs>
</svg>
