<svg width="71" height="110" viewBox="0 0 71 110" fill="none" xmlns="http://www.w3.org/2000/svg">
<path d="M19.3615 109.073C20.7205 109.073 21.8445 107.984 21.9017 106.599C21.9588 105.176 20.8665 103.978 19.4631 103.926C17.1388 103.836 14.6748 103.643 12.3886 102.902C10.82 102.393 8.66719 101.369 7.29548 99.43C6.05712 97.6844 5.51733 95.2109 5.77135 92.4669C5.89836 91.1271 6.27304 89.3106 7.36533 88.28C8.39411 87.3073 8.45127 85.6776 7.49234 84.6406C6.53341 83.5971 4.92673 83.5391 3.9043 84.5117C2.08805 86.2252 1.01481 88.7437 0.716339 91.9838C0.348009 95.971 1.21803 99.6812 3.16764 102.438C4.89498 104.879 7.54315 106.735 10.8327 107.804C13.7031 108.744 16.7069 108.976 19.2662 109.079C19.298 109.079 19.3361 109.079 19.3678 109.079L19.3615 109.073Z" fill="#363A44"/>
<g filter="url(#filter0_f_1272_13378)">
<path d="M5.87662 85.7692C4.3271 87.2378 3.6857 89.4536 3.48883 91.5986C3.20941 94.6325 3.7238 97.8339 5.47654 100.307C7.00702 102.465 9.36306 103.915 11.8588 104.726C14.3546 105.538 16.99 105.77 19.6128 105.873" stroke="white" stroke-width="0.443213" stroke-linecap="round" stroke-linejoin="round"/>
</g>
<g filter="url(#filter1_f_1272_13378)">
<path d="M5.87662 85.7692C4.3271 87.2378 3.6857 89.4536 3.48883 91.5986C3.20941 94.6325 3.7238 97.8339 5.47654 100.307C7.00702 102.465 9.36306 103.915 11.8588 104.726C14.3546 105.538 16.99 105.77 19.6128 105.873" stroke="white" stroke-opacity="0.6" stroke-width="0.443213" stroke-linecap="round" stroke-linejoin="round"/>
</g>
<path d="M5.62169 93.2188C5.61937 93.2488 5.61822 93.2722 5.61822 93.2885C5.61959 93.2653 5.62075 93.2421 5.62169 93.2188C5.66456 92.6652 6.10497 89.8757 6.99825 88.0892C7.93981 86.206 5.07235 85.2809 3.5766 84.9867C3.30996 85.2154 2.71489 86.1136 2.71489 86.3109C3.0806 87.5193 5.72893 90.5762 5.62169 93.2188Z" fill="url(#paint0_linear_1272_13378)"/>
<mask id="mask0_1272_13378" style="mask-type:alpha" maskUnits="userSpaceOnUse" x="30" y="0" width="24" height="41">
<path d="M45.011 3.94318C43.9708 2.85552 43.1218 1.90533 42.5326 1.2268C42.238 0.887515 42.0083 0.616086 41.8521 0.42928C41.8278 0.40013 41.8052 0.373039 41.7844 0.348073C41.7635 0.373126 41.7407 0.400323 41.7162 0.429598C41.5594 0.616374 41.3289 0.88777 41.0336 1.22702C40.4429 1.90548 39.5924 2.8556 38.5522 3.94318C35.206 7.44692 30.5165 13.0031 30.5165 20.3879C30.5165 26.3699 33.3552 31.2618 36.2097 34.6678C37.6359 36.3695 39.0625 37.6959 40.1322 38.5965C40.667 39.0468 41.1122 39.3903 41.4231 39.6208C41.5785 39.7361 41.7004 39.8231 41.783 39.8811C41.7836 39.8815 41.7842 39.8819 41.7847 39.8823C41.7853 39.8819 41.7859 39.8815 41.7864 39.8811C41.869 39.8232 41.9908 39.7362 42.1462 39.6209C42.4569 39.3903 42.9019 39.0468 43.4363 38.5966C44.5055 37.6959 45.9313 36.3696 47.3567 34.6678C50.2096 31.2618 53.0467 26.3699 53.0467 20.3879C53.0467 13.0031 48.3572 7.44692 45.011 3.94318Z" fill="#4B4D53"/>
<path d="M45.011 3.94318C43.9708 2.85552 43.1218 1.90533 42.5326 1.2268C42.238 0.887515 42.0083 0.616086 41.8521 0.42928C41.8278 0.40013 41.8052 0.373039 41.7844 0.348073C41.7635 0.373126 41.7407 0.400323 41.7162 0.429598C41.5594 0.616374 41.3289 0.88777 41.0336 1.22702C40.4429 1.90548 39.5924 2.8556 38.5522 3.94318C35.206 7.44692 30.5165 13.0031 30.5165 20.3879C30.5165 26.3699 33.3552 31.2618 36.2097 34.6678C37.6359 36.3695 39.0625 37.6959 40.1322 38.5965C40.667 39.0468 41.1122 39.3903 41.4231 39.6208C41.5785 39.7361 41.7004 39.8231 41.783 39.8811C41.7836 39.8815 41.7842 39.8819 41.7847 39.8823C41.7853 39.8819 41.7859 39.8815 41.7864 39.8811C41.869 39.8232 41.9908 39.7362 42.1462 39.6209C42.4569 39.3903 42.9019 39.0468 43.4363 38.5966C44.5055 37.6959 45.9313 36.3696 47.3567 34.6678C50.2096 31.2618 53.0467 26.3699 53.0467 20.3879C53.0467 13.0031 48.3572 7.44692 45.011 3.94318Z" fill="url(#paint1_angular_1272_13378)"/>
<path d="M45.011 3.94318C43.9708 2.85552 43.1218 1.90533 42.5326 1.2268C42.238 0.887515 42.0083 0.616086 41.8521 0.42928C41.8278 0.40013 41.8052 0.373039 41.7844 0.348073C41.7635 0.373126 41.7407 0.400323 41.7162 0.429598C41.5594 0.616374 41.3289 0.88777 41.0336 1.22702C40.4429 1.90548 39.5924 2.8556 38.5522 3.94318C35.206 7.44692 30.5165 13.0031 30.5165 20.3879C30.5165 26.3699 33.3552 31.2618 36.2097 34.6678C37.6359 36.3695 39.0625 37.6959 40.1322 38.5965C40.667 39.0468 41.1122 39.3903 41.4231 39.6208C41.5785 39.7361 41.7004 39.8231 41.783 39.8811C41.7836 39.8815 41.7842 39.8819 41.7847 39.8823C41.7853 39.8819 41.7859 39.8815 41.7864 39.8811C41.869 39.8232 41.9908 39.7362 42.1462 39.6209C42.4569 39.3903 42.9019 39.0468 43.4363 38.5966C44.5055 37.6959 45.9313 36.3696 47.3567 34.6678C50.2096 31.2618 53.0467 26.3699 53.0467 20.3879C53.0467 13.0031 48.3572 7.44692 45.011 3.94318Z" stroke="#32353E" stroke-width="0.443213"/>
</mask>
<g mask="url(#mask0_1272_13378)">
<path d="M45.011 3.94343C43.9708 2.85576 43.1218 1.90557 42.5326 1.22705C42.238 0.887759 42.0083 0.61633 41.8521 0.429525C41.8278 0.400374 41.8052 0.373284 41.7844 0.348317C41.7635 0.373371 41.7407 0.400567 41.7162 0.429842C41.5594 0.616618 41.3289 0.888014 41.0336 1.22727C40.4429 1.90573 39.5924 2.85584 38.5522 3.94343C35.206 7.44716 30.5165 13.0034 30.5165 20.3881C30.5165 26.3701 33.3552 31.262 36.2097 34.668C37.6359 36.3698 39.0625 37.6961 40.1322 38.5968C40.667 39.047 41.1122 39.3905 41.4231 39.6211C41.5785 39.7364 41.7004 39.8234 41.783 39.8813C41.7836 39.8817 41.7842 39.8822 41.7847 39.8826C41.7853 39.8822 41.7859 39.8818 41.7864 39.8814C41.869 39.8234 41.9908 39.7364 42.1462 39.6211C42.4569 39.3906 42.9019 39.047 43.4363 38.5968C44.5055 37.6962 45.9313 36.3698 47.3567 34.6681C50.2096 31.2621 53.0467 26.3702 53.0467 20.3881C53.0467 13.0034 48.3572 7.44716 45.011 3.94343Z" fill="#4B4D53"/>
<path d="M45.011 3.94343C43.9708 2.85576 43.1218 1.90557 42.5326 1.22705C42.238 0.887759 42.0083 0.61633 41.8521 0.429525C41.8278 0.400374 41.8052 0.373284 41.7844 0.348317C41.7635 0.373371 41.7407 0.400567 41.7162 0.429842C41.5594 0.616618 41.3289 0.888014 41.0336 1.22727C40.4429 1.90573 39.5924 2.85584 38.5522 3.94343C35.206 7.44716 30.5165 13.0034 30.5165 20.3881C30.5165 26.3701 33.3552 31.262 36.2097 34.668C37.6359 36.3698 39.0625 37.6961 40.1322 38.5968C40.667 39.047 41.1122 39.3905 41.4231 39.6211C41.5785 39.7364 41.7004 39.8234 41.783 39.8813C41.7836 39.8817 41.7842 39.8822 41.7847 39.8826C41.7853 39.8822 41.7859 39.8818 41.7864 39.8814C41.869 39.8234 41.9908 39.7364 42.1462 39.6211C42.4569 39.3906 42.9019 39.047 43.4363 38.5968C44.5055 37.6962 45.9313 36.3698 47.3567 34.6681C50.2096 31.2621 53.0467 26.3702 53.0467 20.3881C53.0467 13.0034 48.3572 7.44716 45.011 3.94343Z" fill="url(#paint2_angular_1272_13378)"/>
<path d="M45.011 3.94343C43.9708 2.85576 43.1218 1.90557 42.5326 1.22705C42.238 0.887759 42.0083 0.61633 41.8521 0.429525C41.8278 0.400374 41.8052 0.373284 41.7844 0.348317C41.7635 0.373371 41.7407 0.400567 41.7162 0.429842C41.5594 0.616618 41.3289 0.888014 41.0336 1.22727C40.4429 1.90573 39.5924 2.85584 38.5522 3.94343C35.206 7.44716 30.5165 13.0034 30.5165 20.3881C30.5165 26.3701 33.3552 31.262 36.2097 34.668C37.6359 36.3698 39.0625 37.6961 40.1322 38.5968C40.667 39.047 41.1122 39.3905 41.4231 39.6211C41.5785 39.7364 41.7004 39.8234 41.783 39.8813C41.7836 39.8817 41.7842 39.8822 41.7847 39.8826C41.7853 39.8822 41.7859 39.8818 41.7864 39.8814C41.869 39.8234 41.9908 39.7364 42.1462 39.6211C42.4569 39.3906 42.9019 39.047 43.4363 38.5968C44.5055 37.6962 45.9313 36.3698 47.3567 34.6681C50.2096 31.2621 53.0467 26.3702 53.0467 20.3881C53.0467 13.0034 48.3572 7.44716 45.011 3.94343Z" stroke="#32353E" stroke-width="0.443213"/>
<g filter="url(#filter2_f_1272_13378)">
<path d="M30.963 17.0126C28.309 30.1322 41.4459 39.4065 41.7808 39.6334C41.6669 39.4917 41.7808 35.6405 41.7808 35.6405C37.7232 31.7346 35.2194 29.7316 34.8221 21.7231L30.963 17.0126Z" fill="url(#paint3_linear_1272_13378)"/>
</g>
<g filter="url(#filter3_f_1272_13378)">
<path d="M52.5985 17.0126C55.2525 30.1322 42.1156 39.4065 41.7808 39.6334C41.8946 39.4917 41.7808 35.6405 41.7808 35.6405C45.8383 31.7346 48.3421 29.7316 48.7395 21.7231L52.5985 17.0126Z" fill="url(#paint4_linear_1272_13378)"/>
</g>
<g filter="url(#filter4_f_1272_13378)">
<path d="M41.9526 39.8184L41.9526 23.7011C42.3996 32.643 47.7457 32.8847 50.4573 30.0697C50.0599 31.858 44.6849 37.2311 41.9526 39.8184Z" fill="black" fill-opacity="0.6"/>
</g>
<g filter="url(#filter5_f_1272_13378)">
<path d="M41.7521 0.636962C34.4523 7.89792 31.0017 14.2089 30.7261 19.663C30.8245 21.5629 30.7261 24.9437 32.7063 28.6713C32.5035 24.0941 34.9111 17.5212 41.7521 12.7576L41.7521 4.63631L41.7521 0.636962Z" fill="url(#paint5_linear_1272_13378)" fill-opacity="0.6"/>
</g>
<g filter="url(#filter6_f_1272_13378)">
<path d="M41.7831 0.636962C49.0829 7.89792 52.5334 14.2089 52.8091 19.663C52.7107 21.5629 52.8091 24.9437 50.8288 28.6713C51.0317 24.0941 48.624 17.6315 41.7831 12.8679L41.7831 4.63631L41.7831 0.636962Z" fill="url(#paint6_linear_1272_13378)" fill-opacity="0.6"/>
</g>
<g filter="url(#filter7_f_1272_13378)">
<line y1="-0.221607" x2="39.5161" y2="-0.221607" transform="matrix(-1.31134e-07 -1 -1 1.31134e-07 42.0259 40.152)" stroke="#32353E" stroke-opacity="0.2" stroke-width="0.443213"/>
</g>
<g filter="url(#filter8_f_1272_13378)">
<path d="M41.5298 40.152L41.5298 0.635883" stroke="white" stroke-opacity="0.16" stroke-width="0.443213" stroke-linecap="round"/>
</g>
</g>
<mask id="mask1_1272_13378" style="mask-type:alpha" maskUnits="userSpaceOnUse" x="37" y="25" width="26" height="36">
<path d="M61.1445 30.8484C60.7875 29.3863 60.5273 28.1389 60.3563 27.2567C60.2709 26.8156 60.2077 26.4657 60.1658 26.2258C60.1593 26.1884 60.1532 26.1536 60.1477 26.1216C60.1171 26.1329 60.0838 26.145 60.0479 26.1581C59.8187 26.2415 59.4834 26.3613 59.058 26.5074C58.2073 26.7996 56.9957 27.1972 55.5512 27.6189C50.9014 28.9802 44.062 31.4472 40.3696 37.8427C37.3785 43.0232 37.391 48.6791 38.16 53.056C38.5443 55.2428 39.1166 57.1048 39.5927 58.4197C39.8307 59.0769 40.0445 59.597 40.1984 59.9522C40.2754 60.1297 40.3374 60.266 40.38 60.3575C40.3803 60.3582 40.3806 60.3588 40.3809 60.3595C40.3816 60.3594 40.3823 60.3593 40.383 60.3593C40.4835 60.3504 40.6324 60.3359 40.8246 60.3137C41.209 60.2694 41.7661 60.1944 42.4541 60.0717C43.8303 59.8263 45.7283 59.3906 47.8136 58.6295C51.9873 57.1063 56.8903 54.2884 59.8813 49.1078C63.5737 42.7124 62.2905 35.5558 61.1445 30.8484Z" fill="#4B4D53"/>
<path d="M61.1445 30.8484C60.7875 29.3863 60.5273 28.1389 60.3563 27.2567C60.2709 26.8156 60.2077 26.4657 60.1658 26.2258C60.1593 26.1884 60.1532 26.1536 60.1477 26.1216C60.1171 26.1329 60.0838 26.145 60.0479 26.1581C59.8187 26.2415 59.4834 26.3613 59.058 26.5074C58.2073 26.7996 56.9957 27.1972 55.5512 27.6189C50.9014 28.9802 44.062 31.4472 40.3696 37.8427C37.3785 43.0232 37.391 48.6791 38.16 53.056C38.5443 55.2428 39.1166 57.1048 39.5927 58.4197C39.8307 59.0769 40.0445 59.597 40.1984 59.9522C40.2754 60.1297 40.3374 60.266 40.38 60.3575C40.3803 60.3582 40.3806 60.3588 40.3809 60.3595C40.3816 60.3594 40.3823 60.3593 40.383 60.3593C40.4835 60.3504 40.6324 60.3359 40.8246 60.3137C41.209 60.2694 41.7661 60.1944 42.4541 60.0717C43.8303 59.8263 45.7283 59.3906 47.8136 58.6295C51.9873 57.1063 56.8903 54.2884 59.8813 49.1078C63.5737 42.7124 62.2905 35.5558 61.1445 30.8484Z" fill="url(#paint7_angular_1272_13378)"/>
<path d="M61.1445 30.8484C60.7875 29.3863 60.5273 28.1389 60.3563 27.2567C60.2709 26.8156 60.2077 26.4657 60.1658 26.2258C60.1593 26.1884 60.1532 26.1536 60.1477 26.1216C60.1171 26.1329 60.0838 26.145 60.0479 26.1581C59.8187 26.2415 59.4834 26.3613 59.058 26.5074C58.2073 26.7996 56.9957 27.1972 55.5512 27.6189C50.9014 28.9802 44.062 31.4472 40.3696 37.8427C37.3785 43.0232 37.391 48.6791 38.16 53.056C38.5443 55.2428 39.1166 57.1048 39.5927 58.4197C39.8307 59.0769 40.0445 59.597 40.1984 59.9522C40.2754 60.1297 40.3374 60.266 40.38 60.3575C40.3803 60.3582 40.3806 60.3588 40.3809 60.3595C40.3816 60.3594 40.3823 60.3593 40.383 60.3593C40.4835 60.3504 40.6324 60.3359 40.8246 60.3137C41.209 60.2694 41.7661 60.1944 42.4541 60.0717C43.8303 59.8263 45.7283 59.3906 47.8136 58.6295C51.9873 57.1063 56.8903 54.2884 59.8813 49.1078C63.5737 42.7124 62.2905 35.5558 61.1445 30.8484Z" stroke="#32353E" stroke-width="0.443213"/>
</mask>
<g mask="url(#mask1_1272_13378)">
<path d="M61.1436 30.8485C60.7865 29.3865 60.5263 28.1391 60.3554 27.2569C60.2699 26.8157 60.2067 26.4658 60.1648 26.2259C60.1583 26.1885 60.1523 26.1538 60.1468 26.1217C60.1161 26.133 60.0828 26.1452 60.0469 26.1582C59.8177 26.2416 59.4825 26.3614 59.057 26.5075C58.2063 26.7997 56.9947 27.1973 55.5502 27.6191C50.9004 28.9803 44.061 31.4473 40.3686 37.8428C37.3776 43.0234 37.39 48.6792 38.1591 53.0561C38.5433 55.243 39.1156 57.1049 39.5917 58.4198C39.8297 59.0771 40.0435 59.5972 40.1974 59.9523C40.2744 60.1298 40.3364 60.2661 40.379 60.3576C40.3793 60.3583 40.3796 60.3589 40.3799 60.3596C40.3806 60.3595 40.3813 60.3594 40.382 60.3594C40.4825 60.3505 40.6315 60.336 40.8236 60.3139C41.208 60.2696 41.7651 60.1945 42.4531 60.0719C43.8294 59.8265 45.7273 59.3907 47.8126 58.6296C51.9863 57.1065 56.8893 54.2885 59.8803 49.1079C63.5727 42.7125 62.2896 35.5559 61.1436 30.8485Z" fill="#4B4D53"/>
<path d="M61.1436 30.8485C60.7865 29.3865 60.5263 28.1391 60.3554 27.2569C60.2699 26.8157 60.2067 26.4658 60.1648 26.2259C60.1583 26.1885 60.1523 26.1538 60.1468 26.1217C60.1161 26.133 60.0828 26.1452 60.0469 26.1582C59.8177 26.2416 59.4825 26.3614 59.057 26.5075C58.2063 26.7997 56.9947 27.1973 55.5502 27.6191C50.9004 28.9803 44.061 31.4473 40.3686 37.8428C37.3776 43.0234 37.39 48.6792 38.1591 53.0561C38.5433 55.243 39.1156 57.1049 39.5917 58.4198C39.8297 59.0771 40.0435 59.5972 40.1974 59.9523C40.2744 60.1298 40.3364 60.2661 40.379 60.3576C40.3793 60.3583 40.3796 60.3589 40.3799 60.3596C40.3806 60.3595 40.3813 60.3594 40.382 60.3594C40.4825 60.3505 40.6315 60.336 40.8236 60.3139C41.208 60.2696 41.7651 60.1945 42.4531 60.0719C43.8294 59.8265 45.7273 59.3907 47.8126 58.6296C51.9863 57.1065 56.8893 54.2885 59.8803 49.1079C63.5727 42.7125 62.2896 35.5559 61.1436 30.8485Z" fill="url(#paint8_angular_1272_13378)"/>
<path d="M61.1436 30.8485C60.7865 29.3865 60.5263 28.1391 60.3554 27.2569C60.2699 26.8157 60.2067 26.4658 60.1648 26.2259C60.1583 26.1885 60.1523 26.1538 60.1468 26.1217C60.1161 26.133 60.0828 26.1452 60.0469 26.1582C59.8177 26.2416 59.4825 26.3614 59.057 26.5075C58.2063 26.7997 56.9947 27.1973 55.5502 27.6191C50.9004 28.9803 44.061 31.4473 40.3686 37.8428C37.3776 43.0234 37.39 48.6792 38.1591 53.0561C38.5433 55.243 39.1156 57.1049 39.5917 58.4198C39.8297 59.0771 40.0435 59.5972 40.1974 59.9523C40.2744 60.1298 40.3364 60.2661 40.379 60.3576C40.3793 60.3583 40.3796 60.3589 40.3799 60.3596C40.3806 60.3595 40.3813 60.3594 40.382 60.3594C40.4825 60.3505 40.6315 60.336 40.8236 60.3139C41.208 60.2696 41.7651 60.1945 42.4531 60.0719C43.8294 59.8265 45.7273 59.3907 47.8126 58.6296C51.9863 57.1065 56.8893 54.2885 59.8803 49.1079C63.5727 42.7125 62.2896 35.5559 61.1436 30.8485Z" stroke="#32353E" stroke-width="0.443213"/>
<g filter="url(#filter9_f_1272_13378)">
<path d="M40.5025 60.1419C40.9059 60.1128 53.9091 59.0816 59.7034 49.0456C63.3394 42.7478 62.0978 35.7297 61.0027 31.1609C60.3792 28.5636 60.0667 26.6698 60.0145 26.3706C60.0305 27.1586 60.2176 39.9117 55.4841 48.1105C50.7505 56.3093 40.8106 60.0224 40.5025 60.1419Z" fill="black" fill-opacity="0.7"/>
</g>
<g filter="url(#filter10_f_1272_13378)">
<path d="M40.5571 60.3882L48.6158 46.4302C44.5319 54.3976 49.0409 57.28 52.7968 56.1979C51.5584 57.548 44.217 59.5137 40.5571 60.3882Z" fill="black" fill-opacity="0.6"/>
</g>
<g filter="url(#filter11_f_1272_13378)">
<path d="M40.2437 60.5917L47.9041 47.1506C43.0461 54.671 40.5531 43.5871 39.6123 39.7934C35.7248 49.5117 39.1711 56.9849 40.2437 60.5917Z" fill="black" fill-opacity="0.6"/>
</g>
<g filter="url(#filter12_f_1272_13378)">
<path d="M59.9746 26.3542C50.0223 28.9925 43.8786 32.7326 40.9127 37.3182C40.048 39.0128 38.2724 41.8915 38.1236 46.1098C40.2365 42.0444 48.3873 32.742 56.6936 32.0371L57.9749 29.8177L59.9746 26.3542Z" fill="url(#paint9_linear_1272_13378)"/>
</g>
<g filter="url(#filter13_f_1272_13378)">
<line y1="-0.221607" x2="39.5161" y2="-0.221607" transform="matrix(0.5 -0.866025 -0.866025 -0.5 40.4556 60.7135)" stroke="#32353E" stroke-opacity="0.5" stroke-width="0.443213"/>
</g>
<g filter="url(#filter14_f_1272_13378)">
<path d="M40.0244 60.4653L59.7825 26.2434" stroke="white" stroke-opacity="0.2" stroke-width="0.443213" stroke-linecap="round"/>
</g>
</g>
<mask id="mask2_1272_13378" style="mask-type:alpha" maskUnits="userSpaceOnUse" x="26" y="55" width="35" height="26">
<path d="M59.1556 62.4918C59.5774 61.0471 59.9758 59.8367 60.2688 58.9872C60.4153 58.5624 60.5356 58.2278 60.6192 57.9991C60.6323 57.9634 60.6445 57.9303 60.6557 57.8999C60.6236 57.8943 60.5886 57.8882 60.551 57.8815C60.3108 57.8391 59.9606 57.7753 59.5191 57.6891C58.6362 57.5168 57.3882 57.2553 55.9263 56.8983C51.2189 55.7523 44.0622 54.4691 37.6668 58.1615C32.4862 61.1525 29.669 66.0568 28.1466 70.2319C27.386 72.3179 26.9506 74.2165 26.7055 75.5933C26.5829 76.2815 26.508 76.8388 26.4638 77.2233C26.4417 77.4156 26.4273 77.5646 26.4184 77.6651C26.4183 77.6659 26.4183 77.6666 26.4182 77.6673C26.4188 77.6676 26.4195 77.6679 26.4201 77.6681C26.5116 77.7107 26.6478 77.7726 26.8253 77.8496C27.1804 78.0034 27.7004 78.217 28.3575 78.4547C29.6721 78.9303 31.5336 79.5019 33.7201 79.8855C38.0962 80.6532 43.7513 80.6642 48.9319 77.6732C55.3273 73.9808 57.7943 67.1415 59.1556 62.4918Z" fill="#4B4D53"/>
<path d="M59.1556 62.4918C59.5774 61.0471 59.9758 59.8367 60.2688 58.9872C60.4153 58.5624 60.5356 58.2278 60.6192 57.9991C60.6323 57.9634 60.6445 57.9303 60.6557 57.8999C60.6236 57.8943 60.5886 57.8882 60.551 57.8815C60.3108 57.8391 59.9606 57.7753 59.5191 57.6891C58.6362 57.5168 57.3882 57.2553 55.9263 56.8983C51.2189 55.7523 44.0622 54.4691 37.6668 58.1615C32.4862 61.1525 29.669 66.0568 28.1466 70.2319C27.386 72.3179 26.9506 74.2165 26.7055 75.5933C26.5829 76.2815 26.508 76.8388 26.4638 77.2233C26.4417 77.4156 26.4273 77.5646 26.4184 77.6651C26.4183 77.6659 26.4183 77.6666 26.4182 77.6673C26.4188 77.6676 26.4195 77.6679 26.4201 77.6681C26.5116 77.7107 26.6478 77.7726 26.8253 77.8496C27.1804 78.0034 27.7004 78.217 28.3575 78.4547C29.6721 78.9303 31.5336 79.5019 33.7201 79.8855C38.0962 80.6532 43.7513 80.6642 48.9319 77.6732C55.3273 73.9808 57.7943 67.1415 59.1556 62.4918Z" fill="url(#paint10_angular_1272_13378)"/>
<path d="M59.1556 62.4918C59.5774 61.0471 59.9758 59.8367 60.2688 58.9872C60.4153 58.5624 60.5356 58.2278 60.6192 57.9991C60.6323 57.9634 60.6445 57.9303 60.6557 57.8999C60.6236 57.8943 60.5886 57.8882 60.551 57.8815C60.3108 57.8391 59.9606 57.7753 59.5191 57.6891C58.6362 57.5168 57.3882 57.2553 55.9263 56.8983C51.2189 55.7523 44.0622 54.4691 37.6668 58.1615C32.4862 61.1525 29.669 66.0568 28.1466 70.2319C27.386 72.3179 26.9506 74.2165 26.7055 75.5933C26.5829 76.2815 26.508 76.8388 26.4638 77.2233C26.4417 77.4156 26.4273 77.5646 26.4184 77.6651C26.4183 77.6659 26.4183 77.6666 26.4182 77.6673C26.4188 77.6676 26.4195 77.6679 26.4201 77.6681C26.5116 77.7107 26.6478 77.7726 26.8253 77.8496C27.1804 78.0034 27.7004 78.217 28.3575 78.4547C29.6721 78.9303 31.5336 79.5019 33.7201 79.8855C38.0962 80.6532 43.7513 80.6642 48.9319 77.6732C55.3273 73.9808 57.7943 67.1415 59.1556 62.4918Z" stroke="#32353E" stroke-width="0.443213"/>
</mask>
<g mask="url(#mask2_1272_13378)">
<path d="M59.1561 62.4923C59.5779 61.0475 59.9763 59.8372 60.2693 58.9877C60.4158 58.5629 60.5361 58.2283 60.6197 57.9996C60.6328 57.9639 60.645 57.9308 60.6562 57.9004C60.624 57.8948 60.5891 57.8887 60.5515 57.882C60.3113 57.8396 59.9611 57.7758 59.5196 57.6896C58.6367 57.5173 57.3887 57.2558 55.9268 56.8988C51.2194 55.7528 44.0627 54.4696 37.6673 58.162C32.4867 61.153 29.6695 66.0573 28.1471 70.2324C27.3865 72.3184 26.9511 74.217 26.706 75.5937C26.5834 76.2819 26.5085 76.8393 26.4643 77.2238C26.4422 77.4161 26.4278 77.5651 26.4189 77.6656C26.4188 77.6663 26.4188 77.6671 26.4187 77.6678C26.4193 77.6681 26.42 77.6683 26.4206 77.6686C26.5121 77.7112 26.6483 77.7731 26.8258 77.85C27.1809 78.0039 27.7008 78.2175 28.358 78.4552C29.6726 78.9308 31.5341 79.5024 33.7206 79.8859C38.0967 80.6537 43.7518 80.6647 48.9324 77.6737C55.3277 73.9813 57.7948 67.142 59.1561 62.4923Z" fill="#4B4D53"/>
<path d="M59.1561 62.4923C59.5779 61.0475 59.9763 59.8372 60.2693 58.9877C60.4158 58.5629 60.5361 58.2283 60.6197 57.9996C60.6328 57.9639 60.645 57.9308 60.6562 57.9004C60.624 57.8948 60.5891 57.8887 60.5515 57.882C60.3113 57.8396 59.9611 57.7758 59.5196 57.6896C58.6367 57.5173 57.3887 57.2558 55.9268 56.8988C51.2194 55.7528 44.0627 54.4696 37.6673 58.162C32.4867 61.153 29.6695 66.0573 28.1471 70.2324C27.3865 72.3184 26.9511 74.217 26.706 75.5937C26.5834 76.2819 26.5085 76.8393 26.4643 77.2238C26.4422 77.4161 26.4278 77.5651 26.4189 77.6656C26.4188 77.6663 26.4188 77.6671 26.4187 77.6678C26.4193 77.6681 26.42 77.6683 26.4206 77.6686C26.5121 77.7112 26.6483 77.7731 26.8258 77.85C27.1809 78.0039 27.7008 78.2175 28.358 78.4552C29.6726 78.9308 31.5341 79.5024 33.7206 79.8859C38.0967 80.6537 43.7518 80.6647 48.9324 77.6737C55.3277 73.9813 57.7948 67.142 59.1561 62.4923Z" fill="url(#paint11_angular_1272_13378)"/>
<path d="M59.1561 62.4923C59.5779 61.0475 59.9763 59.8372 60.2693 58.9877C60.4158 58.5629 60.5361 58.2283 60.6197 57.9996C60.6328 57.9639 60.645 57.9308 60.6562 57.9004C60.624 57.8948 60.5891 57.8887 60.5515 57.882C60.3113 57.8396 59.9611 57.7758 59.5196 57.6896C58.6367 57.5173 57.3887 57.2558 55.9268 56.8988C51.2194 55.7528 44.0627 54.4696 37.6673 58.162C32.4867 61.153 29.6695 66.0573 28.1471 70.2324C27.3865 72.3184 26.9511 74.217 26.706 75.5937C26.5834 76.2819 26.5085 76.8393 26.4643 77.2238C26.4422 77.4161 26.4278 77.5651 26.4189 77.6656C26.4188 77.6663 26.4188 77.6671 26.4187 77.6678C26.4193 77.6681 26.42 77.6683 26.4206 77.6686C26.5121 77.7112 26.6483 77.7731 26.8258 77.85C27.1809 78.0039 27.7008 78.2175 28.358 78.4552C29.6726 78.9308 31.5341 79.5024 33.7206 79.8859C38.0967 80.6537 43.7518 80.6647 48.9324 77.6737C55.3277 73.9813 57.7948 67.142 59.1561 62.4923Z" stroke="#32353E" stroke-width="0.443213"/>
<g filter="url(#filter15_f_1272_13378)">
<path d="M26.6328 77.5403C26.9967 77.7169 38.7734 83.3254 48.8094 77.5311C55.1072 73.8951 57.5409 67.1964 58.877 62.6922C59.6356 60.1311 60.3119 58.3347 60.4162 58.0495C60.0361 58.74 53.8216 69.8781 45.6228 74.6116C37.4241 79.3452 26.9593 77.5908 26.6328 77.5403Z" fill="black" fill-opacity="0.8"/>
</g>
<g filter="url(#filter16_f_1272_13378)">
<path d="M26.5592 77.7807L40.5172 69.722C32.9968 74.5801 35.4605 79.3308 39.2542 80.2716C37.5067 80.8216 30.166 78.8532 26.5592 77.7807Z" fill="black" fill-opacity="0.6"/>
</g>
<g filter="url(#filter17_f_1272_13378)">
<path d="M26.1837 77.7996L38.9338 69.5807C30.9665 73.6645 29.2919 69.3158 30.374 65.5599C29.0239 66.7983 27.0582 74.1397 26.1837 77.7996Z" fill="black" fill-opacity="0.4"/>
</g>
<g filter="url(#filter18_f_1272_13378)">
<path d="M60.39 58.0156C50.4519 55.3243 43.2612 55.4915 38.3999 57.9798C36.8038 59.015 33.8267 60.6202 31.5887 64.1989C35.4512 61.7346 47.1612 57.754 54.7071 61.2966L56.9264 60.0153L60.39 58.0156Z" fill="url(#paint12_linear_1272_13378)"/>
</g>
<g filter="url(#filter19_f_1272_13378)">
<line y1="-0.221607" x2="39.5161" y2="-0.221607" transform="matrix(0.866025 -0.5 -0.5 -0.866025 26.3047 78.0127)" stroke="#32353E" stroke-opacity="0.5" stroke-width="0.443213"/>
</g>
<g filter="url(#filter20_f_1272_13378)">
<path d="M26.0581 77.5817L60.28 57.8236" stroke="white" stroke-opacity="0.2" stroke-width="0.443213" stroke-linecap="round"/>
</g>
</g>
<mask id="mask3_1272_13378" style="mask-type:alpha" maskUnits="userSpaceOnUse" x="3" y="73" width="41" height="24">
<path d="M39.6252 88.1846C40.7128 87.1444 41.663 86.2954 42.3416 85.7062C42.6808 85.4116 42.9523 85.1819 43.1391 85.0257C43.1682 85.0014 43.1953 84.9788 43.2203 84.958C43.1952 84.9371 43.168 84.9143 43.1388 84.8898C42.952 84.733 42.6806 84.5025 42.3413 84.2072C41.6629 83.6165 40.7128 82.766 39.6253 81.7259C36.1216 78.3797 30.5653 73.6901 23.1805 73.6901C17.1985 73.6901 12.3066 76.5288 8.90059 79.3833C7.19885 80.8095 5.87249 82.236 4.97182 83.3058C4.5216 83.8405 4.17808 84.2858 3.94751 84.5967C3.83224 84.7521 3.74523 84.8739 3.68727 84.9566C3.68686 84.9572 3.68645 84.9578 3.68604 84.9583C3.68644 84.9589 3.68684 84.9595 3.68723 84.96C3.7452 85.0426 3.83221 85.1644 3.94748 85.3197C4.17804 85.6305 4.52157 86.0754 4.97178 86.6099C5.87244 87.6791 7.19881 89.1048 8.90054 90.5303C12.3065 93.3832 17.1984 96.2203 23.1805 96.2203C30.5652 96.2203 36.1214 91.5308 39.6252 88.1846Z" fill="#4B4D53"/>
<path d="M39.6252 88.1846C40.7128 87.1444 41.663 86.2954 42.3416 85.7062C42.6808 85.4116 42.9523 85.1819 43.1391 85.0257C43.1682 85.0014 43.1953 84.9788 43.2203 84.958C43.1952 84.9371 43.168 84.9143 43.1388 84.8898C42.952 84.733 42.6806 84.5025 42.3413 84.2072C41.6629 83.6165 40.7128 82.766 39.6253 81.7259C36.1216 78.3797 30.5653 73.6901 23.1805 73.6901C17.1985 73.6901 12.3066 76.5288 8.90059 79.3833C7.19885 80.8095 5.87249 82.236 4.97182 83.3058C4.5216 83.8405 4.17808 84.2858 3.94751 84.5967C3.83224 84.7521 3.74523 84.8739 3.68727 84.9566C3.68686 84.9572 3.68645 84.9578 3.68604 84.9583C3.68644 84.9589 3.68684 84.9595 3.68723 84.96C3.7452 85.0426 3.83221 85.1644 3.94748 85.3197C4.17804 85.6305 4.52157 86.0754 4.97178 86.6099C5.87244 87.6791 7.19881 89.1048 8.90054 90.5303C12.3065 93.3832 17.1984 96.2203 23.1805 96.2203C30.5652 96.2203 36.1214 91.5308 39.6252 88.1846Z" fill="url(#paint13_angular_1272_13378)"/>
<path d="M39.6252 88.1846C40.7128 87.1444 41.663 86.2954 42.3416 85.7062C42.6808 85.4116 42.9523 85.1819 43.1391 85.0257C43.1682 85.0014 43.1953 84.9788 43.2203 84.958C43.1952 84.9371 43.168 84.9143 43.1388 84.8898C42.952 84.733 42.6806 84.5025 42.3413 84.2072C41.6629 83.6165 40.7128 82.766 39.6253 81.7259C36.1216 78.3797 30.5653 73.6901 23.1805 73.6901C17.1985 73.6901 12.3066 76.5288 8.90059 79.3833C7.19885 80.8095 5.87249 82.236 4.97182 83.3058C4.5216 83.8405 4.17808 84.2858 3.94751 84.5967C3.83224 84.7521 3.74523 84.8739 3.68727 84.9566C3.68686 84.9572 3.68645 84.9578 3.68604 84.9583C3.68644 84.9589 3.68684 84.9595 3.68723 84.96C3.7452 85.0426 3.83221 85.1644 3.94748 85.3197C4.17804 85.6305 4.52157 86.0754 4.97178 86.6099C5.87244 87.6791 7.19881 89.1048 8.90054 90.5303C12.3065 93.3832 17.1984 96.2203 23.1805 96.2203C30.5652 96.2203 36.1214 91.5308 39.6252 88.1846Z" stroke="#32353E" stroke-width="0.443213"/>
</mask>
<g mask="url(#mask3_1272_13378)">
<path d="M39.6247 88.1852C40.7124 87.145 41.6625 86.296 42.3411 85.7068C42.6804 85.4122 42.9518 85.1825 43.1386 85.0263C43.1677 85.002 43.1948 84.9794 43.2198 84.9586C43.1947 84.9377 43.1675 84.9149 43.1383 84.8904C42.9515 84.7336 42.6801 84.5031 42.3408 84.2078C41.6624 83.6171 40.7123 82.7666 39.6248 81.7265C36.1211 78.3803 30.5648 73.6907 23.18 73.6907C17.198 73.6907 12.3061 76.5294 8.9001 79.3839C7.19836 80.8101 5.872 82.2366 4.97133 83.3064C4.52111 83.8412 4.17759 84.2864 3.94703 84.5973C3.83175 84.7527 3.74474 84.8746 3.68678 84.9572C3.68637 84.9578 3.68596 84.9584 3.68555 84.9589C3.68595 84.9595 3.68635 84.9601 3.68674 84.9606C3.74471 85.0432 3.83172 85.165 3.94699 85.3204C4.17755 85.6311 4.52108 86.0761 4.97129 86.6105C5.87196 87.6797 7.19832 89.1054 8.90005 90.5309C12.306 93.3838 17.1979 96.2209 23.18 96.2209C30.5647 96.2209 36.121 91.5314 39.6247 88.1852Z" fill="#4B4D53"/>
<path d="M39.6247 88.1852C40.7124 87.145 41.6625 86.296 42.3411 85.7068C42.6804 85.4122 42.9518 85.1825 43.1386 85.0263C43.1677 85.002 43.1948 84.9794 43.2198 84.9586C43.1947 84.9377 43.1675 84.9149 43.1383 84.8904C42.9515 84.7336 42.6801 84.5031 42.3408 84.2078C41.6624 83.6171 40.7123 82.7666 39.6248 81.7265C36.1211 78.3803 30.5648 73.6907 23.18 73.6907C17.198 73.6907 12.3061 76.5294 8.9001 79.3839C7.19836 80.8101 5.872 82.2366 4.97133 83.3064C4.52111 83.8412 4.17759 84.2864 3.94703 84.5973C3.83175 84.7527 3.74474 84.8746 3.68678 84.9572C3.68637 84.9578 3.68596 84.9584 3.68555 84.9589C3.68595 84.9595 3.68635 84.9601 3.68674 84.9606C3.74471 85.0432 3.83172 85.165 3.94699 85.3204C4.17755 85.6311 4.52108 86.0761 4.97129 86.6105C5.87196 87.6797 7.19832 89.1054 8.90005 90.5309C12.306 93.3838 17.1979 96.2209 23.18 96.2209C30.5647 96.2209 36.121 91.5314 39.6247 88.1852Z" fill="url(#paint14_angular_1272_13378)"/>
<path d="M39.6247 88.1852C40.7124 87.145 41.6625 86.296 42.3411 85.7068C42.6804 85.4122 42.9518 85.1825 43.1386 85.0263C43.1677 85.002 43.1948 84.9794 43.2198 84.9586C43.1947 84.9377 43.1675 84.9149 43.1383 84.8904C42.9515 84.7336 42.6801 84.5031 42.3408 84.2078C41.6624 83.6171 40.7123 82.7666 39.6248 81.7265C36.1211 78.3803 30.5648 73.6907 23.18 73.6907C17.198 73.6907 12.3061 76.5294 8.9001 79.3839C7.19836 80.8101 5.872 82.2366 4.97133 83.3064C4.52111 83.8412 4.17759 84.2864 3.94703 84.5973C3.83175 84.7527 3.74474 84.8746 3.68678 84.9572C3.68637 84.9578 3.68596 84.9584 3.68555 84.9589C3.68595 84.9595 3.68635 84.9601 3.68674 84.9606C3.74471 85.0432 3.83172 85.165 3.94699 85.3204C4.17755 85.6311 4.52108 86.0761 4.97129 86.6105C5.87196 87.6797 7.19832 89.1054 8.90005 90.5309C12.306 93.3838 17.1979 96.2209 23.18 96.2209C30.5647 96.2209 36.121 91.5314 39.6247 88.1852Z" stroke="#32353E" stroke-width="0.443213"/>
<g filter="url(#filter21_f_1272_13378)">
<path d="M3.93523 84.9553C4.16209 85.2902 11.5567 96.0357 23.1454 96.0357C30.4174 96.0357 35.8744 91.4513 39.2836 88.2185C41.2212 86.3799 42.705 85.1623 42.938 84.9675C42.2635 85.3754 31.3126 91.914 21.8455 91.914C12.3784 91.914 4.19275 85.1623 3.93523 84.9553Z" fill="black" fill-opacity="0.7"/>
</g>
<g filter="url(#filter22_f_1272_13378)">
<path d="M3.74997 85.1255H19.8673C10.9254 85.5725 10.6837 90.9186 13.4987 93.6302C11.7103 93.2328 6.33728 87.8578 3.74997 85.1255Z" fill="black" fill-opacity="0.6"/>
</g>
<g filter="url(#filter23_f_1272_13378)">
<path d="M3.41695 84.9553L18.5684 84.2127C9.62648 83.7657 10.3506 79.1622 13.1657 76.4506C11.3773 76.848 6.00426 82.223 3.41695 84.9553Z" fill="black" fill-opacity="0.2"/>
</g>
<g filter="url(#filter24_f_1272_13378)">
<path d="M42.9312 84.9263C35.6702 77.6265 29.3593 74.1759 23.9051 73.9003C22.0052 73.9987 18.6244 73.9003 14.8968 75.8805C19.474 75.6777 31.6055 78.0853 36.3691 84.9263H38.9318H42.9312Z" fill="url(#paint15_linear_1272_13378)"/>
</g>
<g filter="url(#filter25_f_1272_13378)">
<line y1="-0.221607" x2="39.5161" y2="-0.221607" transform="matrix(1 -8.74228e-08 -8.74228e-08 -1 3.41602 85.2006)" stroke="#32353E" stroke-opacity="0.5" stroke-width="0.443213"/>
</g>
<g filter="url(#filter26_f_1272_13378)">
<path d="M3.41602 84.703L42.9321 84.703" stroke="white" stroke-opacity="0.2" stroke-width="0.443213" stroke-linecap="round"/>
</g>
</g>
<defs>
<filter id="filter0_f_1272_13378" x="1.42295" y="83.7748" width="20.1844" height="24.0925" filterUnits="userSpaceOnUse" color-interpolation-filters="sRGB">
<feFlood flood-opacity="0" result="BackgroundImageFix"/>
<feBlend mode="normal" in="SourceGraphic" in2="BackgroundImageFix" result="shape"/>
<feGaussianBlur stdDeviation="0.886426" result="effect1_foregroundBlur_1272_13378"/>
</filter>
<filter id="filter1_f_1272_13378" x="1.42295" y="83.7748" width="20.1844" height="24.0925" filterUnits="userSpaceOnUse" color-interpolation-filters="sRGB">
<feFlood flood-opacity="0" result="BackgroundImageFix"/>
<feBlend mode="normal" in="SourceGraphic" in2="BackgroundImageFix" result="shape"/>
<feGaussianBlur stdDeviation="0.886426" result="effect1_foregroundBlur_1272_13378"/>
</filter>
<filter id="filter2_f_1272_13378" x="25.2908" y="11.694" width="21.8085" height="33.258" filterUnits="userSpaceOnUse" color-interpolation-filters="sRGB">
<feFlood flood-opacity="0" result="BackgroundImageFix"/>
<feBlend mode="normal" in="SourceGraphic" in2="BackgroundImageFix" result="shape"/>
<feGaussianBlur stdDeviation="2.65928" result="effect1_foregroundBlur_1272_13378"/>
</filter>
<filter id="filter3_f_1272_13378" x="36.4622" y="11.694" width="21.8085" height="33.258" filterUnits="userSpaceOnUse" color-interpolation-filters="sRGB">
<feFlood flood-opacity="0" result="BackgroundImageFix"/>
<feBlend mode="normal" in="SourceGraphic" in2="BackgroundImageFix" result="shape"/>
<feGaussianBlur stdDeviation="2.65928" result="effect1_foregroundBlur_1272_13378"/>
</filter>
<filter id="filter4_f_1272_13378" x="36.6341" y="18.3825" width="19.142" height="26.7544" filterUnits="userSpaceOnUse" color-interpolation-filters="sRGB">
<feFlood flood-opacity="0" result="BackgroundImageFix"/>
<feBlend mode="normal" in="SourceGraphic" in2="BackgroundImageFix" result="shape"/>
<feGaussianBlur stdDeviation="2.65928" result="effect1_foregroundBlur_1272_13378"/>
</filter>
<filter id="filter5_f_1272_13378" x="27.1804" y="-2.90874" width="18.1173" height="35.1257" filterUnits="userSpaceOnUse" color-interpolation-filters="sRGB">
<feFlood flood-opacity="0" result="BackgroundImageFix"/>
<feBlend mode="normal" in="SourceGraphic" in2="BackgroundImageFix" result="shape"/>
<feGaussianBlur stdDeviation="1.77285" result="effect1_foregroundBlur_1272_13378"/>
</filter>
<filter id="filter6_f_1272_13378" x="38.2375" y="-2.90874" width="18.1173" height="35.1257" filterUnits="userSpaceOnUse" color-interpolation-filters="sRGB">
<feFlood flood-opacity="0" result="BackgroundImageFix"/>
<feBlend mode="normal" in="SourceGraphic" in2="BackgroundImageFix" result="shape"/>
<feGaussianBlur stdDeviation="1.77285" result="effect1_foregroundBlur_1272_13378"/>
</filter>
<filter id="filter7_f_1272_13378" x="41.1395" y="-0.250562" width="2.21621" height="41.289" filterUnits="userSpaceOnUse" color-interpolation-filters="sRGB">
<feFlood flood-opacity="0" result="BackgroundImageFix"/>
<feBlend mode="normal" in="SourceGraphic" in2="BackgroundImageFix" result="shape"/>
<feGaussianBlur stdDeviation="0.443213" result="effect1_foregroundBlur_1272_13378"/>
</filter>
<filter id="filter8_f_1272_13378" x="40.4217" y="-0.47212" width="2.21621" height="41.7321" filterUnits="userSpaceOnUse" color-interpolation-filters="sRGB">
<feFlood flood-opacity="0" result="BackgroundImageFix"/>
<feBlend mode="normal" in="SourceGraphic" in2="BackgroundImageFix" result="shape"/>
<feGaussianBlur stdDeviation="0.443213" result="effect1_foregroundBlur_1272_13378"/>
</filter>
<filter id="filter9_f_1272_13378" x="35.1839" y="21.052" width="32.2621" height="44.4084" filterUnits="userSpaceOnUse" color-interpolation-filters="sRGB">
<feFlood flood-opacity="0" result="BackgroundImageFix"/>
<feBlend mode="normal" in="SourceGraphic" in2="BackgroundImageFix" result="shape"/>
<feGaussianBlur stdDeviation="2.65928" result="effect1_foregroundBlur_1272_13378"/>
</filter>
<filter id="filter10_f_1272_13378" x="35.2386" y="41.1117" width="22.8769" height="24.595" filterUnits="userSpaceOnUse" color-interpolation-filters="sRGB">
<feFlood flood-opacity="0" result="BackgroundImageFix"/>
<feBlend mode="normal" in="SourceGraphic" in2="BackgroundImageFix" result="shape"/>
<feGaussianBlur stdDeviation="2.65928" result="effect1_foregroundBlur_1272_13378"/>
</filter>
<filter id="filter11_f_1272_13378" x="32.49" y="34.4748" width="20.7328" height="31.4355" filterUnits="userSpaceOnUse" color-interpolation-filters="sRGB">
<feFlood flood-opacity="0" result="BackgroundImageFix"/>
<feBlend mode="normal" in="SourceGraphic" in2="BackgroundImageFix" result="shape"/>
<feGaussianBlur stdDeviation="2.65928" result="effect1_foregroundBlur_1272_13378"/>
</filter>
<filter id="filter12_f_1272_13378" x="34.5778" y="22.8085" width="28.9425" height="26.8469" filterUnits="userSpaceOnUse" color-interpolation-filters="sRGB">
<feFlood flood-opacity="0" result="BackgroundImageFix"/>
<feBlend mode="normal" in="SourceGraphic" in2="BackgroundImageFix" result="shape"/>
<feGaussianBlur stdDeviation="1.77285" result="effect1_foregroundBlur_1272_13378"/>
</filter>
<filter id="filter13_f_1272_13378" x="39.5691" y="25.6052" width="21.9149" height="36.2163" filterUnits="userSpaceOnUse" color-interpolation-filters="sRGB">
<feFlood flood-opacity="0" result="BackgroundImageFix"/>
<feBlend mode="normal" in="SourceGraphic" in2="BackgroundImageFix" result="shape"/>
<feGaussianBlur stdDeviation="0.443213" result="effect1_foregroundBlur_1272_13378"/>
</filter>
<filter id="filter14_f_1272_13378" x="38.9163" y="25.1353" width="21.974" height="36.4381" filterUnits="userSpaceOnUse" color-interpolation-filters="sRGB">
<feFlood flood-opacity="0" result="BackgroundImageFix"/>
<feBlend mode="normal" in="SourceGraphic" in2="BackgroundImageFix" result="shape"/>
<feGaussianBlur stdDeviation="0.443213" result="effect1_foregroundBlur_1272_13378"/>
</filter>
<filter id="filter15_f_1272_13378" x="21.3143" y="52.7309" width="44.4203" height="32.7361" filterUnits="userSpaceOnUse" color-interpolation-filters="sRGB">
<feFlood flood-opacity="0" result="BackgroundImageFix"/>
<feBlend mode="normal" in="SourceGraphic" in2="BackgroundImageFix" result="shape"/>
<feGaussianBlur stdDeviation="2.65928" result="effect1_foregroundBlur_1272_13378"/>
</filter>
<filter id="filter16_f_1272_13378" x="21.2405" y="64.4035" width="24.5951" height="21.2818" filterUnits="userSpaceOnUse" color-interpolation-filters="sRGB">
<feFlood flood-opacity="0" result="BackgroundImageFix"/>
<feBlend mode="normal" in="SourceGraphic" in2="BackgroundImageFix" result="shape"/>
<feGaussianBlur stdDeviation="2.65928" result="effect1_foregroundBlur_1272_13378"/>
</filter>
<filter id="filter17_f_1272_13378" x="20.865" y="60.2414" width="23.3876" height="22.8767" filterUnits="userSpaceOnUse" color-interpolation-filters="sRGB">
<feFlood flood-opacity="0" result="BackgroundImageFix"/>
<feBlend mode="normal" in="SourceGraphic" in2="BackgroundImageFix" result="shape"/>
<feGaussianBlur stdDeviation="2.65928" result="effect1_foregroundBlur_1272_13378"/>
</filter>
<filter id="filter18_f_1272_13378" x="28.0432" y="52.5093" width="35.8927" height="15.2353" filterUnits="userSpaceOnUse" color-interpolation-filters="sRGB">
<feFlood flood-opacity="0" result="BackgroundImageFix"/>
<feBlend mode="normal" in="SourceGraphic" in2="BackgroundImageFix" result="shape"/>
<feGaussianBlur stdDeviation="1.77285" result="effect1_foregroundBlur_1272_13378"/>
</filter>
<filter id="filter19_f_1272_13378" x="25.4183" y="57.3682" width="36.2162" height="21.9147" filterUnits="userSpaceOnUse" color-interpolation-filters="sRGB">
<feFlood flood-opacity="0" result="BackgroundImageFix"/>
<feBlend mode="normal" in="SourceGraphic" in2="BackgroundImageFix" result="shape"/>
<feGaussianBlur stdDeviation="0.443213" result="effect1_foregroundBlur_1272_13378"/>
</filter>
<filter id="filter20_f_1272_13378" x="24.95" y="56.7155" width="36.4379" height="21.9743" filterUnits="userSpaceOnUse" color-interpolation-filters="sRGB">
<feFlood flood-opacity="0" result="BackgroundImageFix"/>
<feBlend mode="normal" in="SourceGraphic" in2="BackgroundImageFix" result="shape"/>
<feGaussianBlur stdDeviation="0.443213" result="effect1_foregroundBlur_1272_13378"/>
</filter>
<filter id="filter21_f_1272_13378" x="-1.3835" y="79.6368" width="49.64" height="21.7174" filterUnits="userSpaceOnUse" color-interpolation-filters="sRGB">
<feFlood flood-opacity="0" result="BackgroundImageFix"/>
<feBlend mode="normal" in="SourceGraphic" in2="BackgroundImageFix" result="shape"/>
<feGaussianBlur stdDeviation="2.65928" result="effect1_foregroundBlur_1272_13378"/>
</filter>
<filter id="filter22_f_1272_13378" x="-1.56856" y="79.8069" width="26.7543" height="19.1419" filterUnits="userSpaceOnUse" color-interpolation-filters="sRGB">
<feFlood flood-opacity="0" result="BackgroundImageFix"/>
<feBlend mode="normal" in="SourceGraphic" in2="BackgroundImageFix" result="shape"/>
<feGaussianBlur stdDeviation="2.65928" result="effect1_foregroundBlur_1272_13378"/>
</filter>
<filter id="filter23_f_1272_13378" x="-1.90157" y="71.132" width="25.7885" height="19.1419" filterUnits="userSpaceOnUse" color-interpolation-filters="sRGB">
<feFlood flood-opacity="0" result="BackgroundImageFix"/>
<feBlend mode="normal" in="SourceGraphic" in2="BackgroundImageFix" result="shape"/>
<feGaussianBlur stdDeviation="2.65928" result="effect1_foregroundBlur_1272_13378"/>
</filter>
<filter id="filter24_f_1272_13378" x="11.3513" y="70.3546" width="35.1256" height="18.1174" filterUnits="userSpaceOnUse" color-interpolation-filters="sRGB">
<feFlood flood-opacity="0" result="BackgroundImageFix"/>
<feBlend mode="normal" in="SourceGraphic" in2="BackgroundImageFix" result="shape"/>
<feGaussianBlur stdDeviation="1.77285" result="effect1_foregroundBlur_1272_13378"/>
</filter>
<filter id="filter25_f_1272_13378" x="2.52959" y="84.3141" width="41.289" height="2.21609" filterUnits="userSpaceOnUse" color-interpolation-filters="sRGB">
<feFlood flood-opacity="0" result="BackgroundImageFix"/>
<feBlend mode="normal" in="SourceGraphic" in2="BackgroundImageFix" result="shape"/>
<feGaussianBlur stdDeviation="0.443213" result="effect1_foregroundBlur_1272_13378"/>
</filter>
<filter id="filter26_f_1272_13378" x="2.30791" y="83.595" width="41.7323" height="2.21597" filterUnits="userSpaceOnUse" color-interpolation-filters="sRGB">
<feFlood flood-opacity="0" result="BackgroundImageFix"/>
<feBlend mode="normal" in="SourceGraphic" in2="BackgroundImageFix" result="shape"/>
<feGaussianBlur stdDeviation="0.443213" result="effect1_foregroundBlur_1272_13378"/>
</filter>
<linearGradient id="paint0_linear_1272_13378" x1="5.23157" y1="87.7884" x2="4.15904" y2="88.5983" gradientUnits="userSpaceOnUse">
<stop stop-color="#24272D"/>
<stop offset="1" stop-color="#24272D" stop-opacity="0"/>
</linearGradient>
<radialGradient id="paint1_angular_1272_13378" cx="0" cy="0" r="1" gradientUnits="userSpaceOnUse" gradientTransform="translate(41.7817 40.1515) rotate(-90) scale(40.1515 70.1742)">
<stop stop-color="#686A74"/>
<stop offset="1" stop-color="#686A74" stop-opacity="0"/>
</radialGradient>
<radialGradient id="paint2_angular_1272_13378" cx="0" cy="0" r="1" gradientUnits="userSpaceOnUse" gradientTransform="translate(41.7817 40.1517) rotate(-90) scale(40.1515 70.1742)">
<stop stop-color="#686A74"/>
<stop offset="1" stop-color="#686A74" stop-opacity="0"/>
</radialGradient>
<linearGradient id="paint3_linear_1272_13378" x1="38.0477" y1="35.4749" x2="44.2766" y2="9.24166" gradientUnits="userSpaceOnUse">
<stop stop-color="#161618"/>
<stop offset="1" stop-color="#161618" stop-opacity="0"/>
</linearGradient>
<linearGradient id="paint4_linear_1272_13378" x1="45.5139" y1="35.4749" x2="39.2849" y2="9.24166" gradientUnits="userSpaceOnUse">
<stop stop-color="#161618"/>
<stop offset="1" stop-color="#161618" stop-opacity="0"/>
</linearGradient>
<linearGradient id="paint5_linear_1272_13378" x1="36.2391" y1="-3.7202" x2="43.0634" y2="22.3299" gradientUnits="userSpaceOnUse">
<stop stop-color="white"/>
<stop offset="1" stop-color="white" stop-opacity="0"/>
</linearGradient>
<linearGradient id="paint6_linear_1272_13378" x1="54.4831" y1="-4.07705" x2="45.4429" y2="16.2635" gradientUnits="userSpaceOnUse">
<stop stop-color="white"/>
<stop offset="1" stop-color="white" stop-opacity="0"/>
</linearGradient>
<radialGradient id="paint7_angular_1272_13378" cx="0" cy="0" r="1" gradientUnits="userSpaceOnUse" gradientTransform="translate(40.2437 60.591) rotate(-60) scale(40.1515 70.1742)">
<stop stop-color="#686A74"/>
<stop offset="1" stop-color="#686A74" stop-opacity="0"/>
</radialGradient>
<radialGradient id="paint8_angular_1272_13378" cx="0" cy="0" r="1" gradientUnits="userSpaceOnUse" gradientTransform="translate(40.2427 60.5911) rotate(-60) scale(40.1515 70.1742)">
<stop stop-color="#686A74"/>
<stop offset="1" stop-color="#686A74" stop-opacity="0"/>
</radialGradient>
<linearGradient id="paint9_linear_1272_13378" x1="45.5227" y1="26.1049" x2="52.2641" y2="39.7087" gradientUnits="userSpaceOnUse">
<stop stop-color="white"/>
<stop offset="1" stop-color="white" stop-opacity="0"/>
</linearGradient>
<radialGradient id="paint10_angular_1272_13378" cx="0" cy="0" r="1" gradientUnits="userSpaceOnUse" gradientTransform="translate(26.1836 77.7992) rotate(-30) scale(40.1515 70.1742)">
<stop stop-color="#686A74"/>
<stop offset="1" stop-color="#686A74" stop-opacity="0"/>
</radialGradient>
<radialGradient id="paint11_angular_1272_13378" cx="0" cy="0" r="1" gradientUnits="userSpaceOnUse" gradientTransform="translate(26.1841 77.7997) rotate(-30) scale(40.1515 70.1742)">
<stop stop-color="#686A74"/>
<stop offset="1" stop-color="#686A74" stop-opacity="0"/>
</radialGradient>
<linearGradient id="paint12_linear_1272_13378" x1="47.7975" y1="45.1034" x2="47.0352" y2="65.7257" gradientUnits="userSpaceOnUse">
<stop stop-color="white"/>
<stop offset="1" stop-color="white" stop-opacity="0"/>
</linearGradient>
<radialGradient id="paint13_angular_1272_13378" cx="0" cy="0" r="1" gradientUnits="userSpaceOnUse" gradientTransform="translate(3.41688 84.9553) scale(40.1515 70.1742)">
<stop stop-color="#686A74"/>
<stop offset="1" stop-color="#686A74" stop-opacity="0"/>
</radialGradient>
<radialGradient id="paint14_angular_1272_13378" cx="0" cy="0" r="1" gradientUnits="userSpaceOnUse" gradientTransform="translate(3.41639 84.9559) scale(40.1515 70.1742)">
<stop stop-color="#686A74"/>
<stop offset="1" stop-color="#686A74" stop-opacity="0"/>
</radialGradient>
<linearGradient id="paint15_linear_1272_13378" x1="38.4819" y1="67.4478" x2="27.5105" y2="84.9261" gradientUnits="userSpaceOnUse">
<stop stop-color="white"/>
<stop offset="1" stop-color="white" stop-opacity="0"/>
</linearGradient>
</defs>
</svg>
